<?xml version="1.0" encoding="utf-8"?>
<!-- Generator: Adobe Illustrator 23.1.1, SVG Export Plug-In . SVG Version: 6.00 Build 0)  -->
<svg version="1.1" id="Layer_1" xmlns="http://www.w3.org/2000/svg" xmlns:xlink="http://www.w3.org/1999/xlink" x="0px" y="0px"
	 viewBox="0 0 1920 1080" style="enable-background:new 0 0 1920 1080;" xml:space="preserve">
<style type="text/css">
	.st0{fill:#FFFFFF;}
</style>
<g>
	<g>
		<path class="st0" d="M336.66,171.88c4.39,4.03,7.7,6.55,12.02,9.58l-3.31,3.38c-3.1-4.32-5.54-7.63-9.72-11.95
			c0.14,5.9,0.72,10.01,1.66,15.27h-4.68c0.94-5.26,1.51-9.36,1.66-15.34c-4.1,4.32-6.62,7.7-9.72,12.02l-3.31-3.38
			c4.32-3.02,7.71-5.47,12.03-9.65c-5.98,0.22-10.08,0.79-15.34,1.66v-4.75c5.26,0.94,9.36,1.51,15.27,1.73
			c-4.25-4.1-7.63-6.62-11.95-9.65l3.31-3.38c3.1,4.32,5.54,7.7,9.72,12.02c-0.14-5.98-0.72-10.15-1.66-15.34h4.68
			c-0.94,5.18-1.51,9.36-1.66,15.34c4.1-4.32,6.7-7.7,9.72-12.02l3.31,3.38c-4.32,3.02-7.7,5.54-12.02,9.65
			c5.98-0.14,10.15-0.79,15.34-1.73l0.07,4.75C346.81,172.52,342.7,172.02,336.66,171.88z"/>
	</g>
	<g>
		<path class="st0" d="M386.66,171.88c4.39,4.03,7.7,6.55,12.02,9.58l-3.31,3.38c-3.1-4.32-5.54-7.63-9.72-11.95
			c0.14,5.9,0.72,10.01,1.66,15.27h-4.68c0.94-5.26,1.51-9.36,1.66-15.34c-4.1,4.32-6.62,7.7-9.72,12.02l-3.31-3.38
			c4.32-3.02,7.71-5.47,12.03-9.65c-5.98,0.22-10.08,0.79-15.34,1.66v-4.75c5.26,0.94,9.36,1.51,15.27,1.73
			c-4.25-4.1-7.63-6.62-11.95-9.65l3.31-3.38c3.1,4.32,5.54,7.7,9.72,12.02c-0.14-5.98-0.72-10.15-1.66-15.34h4.68
			c-0.94,5.18-1.51,9.36-1.66,15.34c4.1-4.32,6.7-7.7,9.72-12.02l3.31,3.38c-4.32,3.02-7.7,5.54-12.02,9.65
			c5.98-0.14,10.15-0.79,15.34-1.73l0.07,4.75C396.81,172.52,392.7,172.02,386.66,171.88z"/>
	</g>
	<g>
		<path class="st0" d="M436.66,171.88c4.39,4.03,7.7,6.55,12.02,9.58l-3.31,3.38c-3.1-4.32-5.54-7.63-9.72-11.95
			c0.14,5.9,0.72,10.01,1.66,15.27h-4.68c0.94-5.26,1.51-9.36,1.66-15.34c-4.1,4.32-6.62,7.7-9.72,12.02l-3.31-3.38
			c4.32-3.02,7.71-5.47,12.03-9.65c-5.98,0.22-10.08,0.79-15.34,1.66v-4.75c5.26,0.94,9.36,1.51,15.27,1.73
			c-4.25-4.1-7.63-6.62-11.95-9.65l3.31-3.38c3.1,4.32,5.54,7.7,9.72,12.02c-0.14-5.98-0.72-10.15-1.66-15.34h4.68
			c-0.94,5.18-1.51,9.36-1.66,15.34c4.1-4.32,6.7-7.7,9.72-12.02l3.31,3.38c-4.32,3.02-7.7,5.54-12.02,9.65
			c5.98-0.14,10.15-0.79,15.34-1.73l0.07,4.75C446.81,172.52,442.7,172.02,436.66,171.88z"/>
	</g>
	<g>
		<path class="st0" d="M486.66,171.88c4.39,4.03,7.7,6.55,12.02,9.58l-3.31,3.38c-3.1-4.32-5.54-7.63-9.72-11.95
			c0.14,5.9,0.72,10.01,1.66,15.27h-4.68c0.94-5.26,1.51-9.36,1.66-15.34c-4.1,4.32-6.62,7.7-9.72,12.02l-3.31-3.38
			c4.32-3.02,7.71-5.47,12.03-9.65c-5.98,0.22-10.08,0.79-15.34,1.66v-4.75c5.26,0.94,9.36,1.51,15.27,1.73
			c-4.25-4.1-7.63-6.62-11.95-9.65l3.31-3.38c3.1,4.32,5.54,7.7,9.72,12.02c-0.14-5.98-0.72-10.15-1.66-15.34h4.68
			c-0.94,5.18-1.51,9.36-1.66,15.34c4.1-4.32,6.7-7.7,9.72-12.02l3.31,3.38c-4.32,3.02-7.7,5.54-12.02,9.65
			c5.98-0.14,10.15-0.79,15.34-1.73l0.07,4.75C496.81,172.52,492.7,172.02,486.66,171.88z"/>
	</g>
	<g>
		<path class="st0" d="M536.66,171.88c4.39,4.03,7.7,6.55,12.02,9.58l-3.31,3.38c-3.1-4.32-5.54-7.63-9.72-11.95
			c0.14,5.9,0.72,10.01,1.66,15.27h-4.68c0.94-5.26,1.51-9.36,1.66-15.34c-4.1,4.32-6.62,7.7-9.72,12.02l-3.31-3.38
			c4.32-3.02,7.71-5.47,12.03-9.65c-5.98,0.22-10.08,0.79-15.34,1.66v-4.75c5.26,0.94,9.36,1.51,15.27,1.73
			c-4.25-4.1-7.63-6.62-11.95-9.65l3.31-3.38c3.1,4.32,5.54,7.7,9.72,12.02c-0.14-5.98-0.72-10.15-1.66-15.34h4.68
			c-0.94,5.18-1.51,9.36-1.66,15.34c4.1-4.32,6.7-7.7,9.72-12.02l3.31,3.38c-4.32,3.02-7.7,5.54-12.02,9.65
			c5.98-0.14,10.15-0.79,15.34-1.73l0.07,4.75C546.81,172.52,542.7,172.02,536.66,171.88z"/>
	</g>
	<g>
		<path class="st0" d="M586.66,171.88c4.39,4.03,7.7,6.55,12.02,9.58l-3.31,3.38c-3.1-4.32-5.54-7.63-9.72-11.95
			c0.14,5.9,0.72,10.01,1.66,15.27h-4.68c0.94-5.26,1.51-9.36,1.66-15.34c-4.1,4.32-6.62,7.7-9.72,12.02l-3.31-3.38
			c4.32-3.02,7.71-5.47,12.03-9.65c-5.98,0.22-10.08,0.79-15.34,1.66v-4.75c5.26,0.94,9.36,1.51,15.27,1.73
			c-4.25-4.1-7.63-6.62-11.95-9.65l3.31-3.38c3.1,4.32,5.54,7.7,9.72,12.02c-0.14-5.98-0.72-10.15-1.66-15.34h4.68
			c-0.94,5.18-1.51,9.36-1.66,15.34c4.1-4.32,6.7-7.7,9.72-12.02l3.31,3.38c-4.32,3.02-7.7,5.54-12.02,9.65
			c5.98-0.14,10.15-0.79,15.34-1.73l0.07,4.75C596.81,172.52,592.7,172.02,586.66,171.88z"/>
	</g>
	<g>
		<path class="st0" d="M636.66,171.88c4.39,4.03,7.7,6.55,12.02,9.58l-3.31,3.38c-3.1-4.32-5.54-7.63-9.72-11.95
			c0.14,5.9,0.72,10.01,1.66,15.27h-4.68c0.94-5.26,1.51-9.36,1.66-15.34c-4.1,4.32-6.62,7.7-9.72,12.02l-3.31-3.38
			c4.32-3.02,7.71-5.47,12.03-9.65c-5.98,0.22-10.08,0.79-15.34,1.66v-4.75c5.26,0.94,9.36,1.51,15.27,1.73
			c-4.25-4.1-7.63-6.62-11.95-9.65l3.31-3.38c3.1,4.32,5.54,7.7,9.72,12.02c-0.14-5.98-0.72-10.15-1.66-15.34h4.68
			c-0.94,5.18-1.51,9.36-1.66,15.34c4.1-4.32,6.7-7.7,9.72-12.02l3.31,3.38c-4.32,3.02-7.7,5.54-12.02,9.65
			c5.98-0.14,10.15-0.79,15.34-1.73l0.07,4.75C646.81,172.52,642.7,172.02,636.66,171.88z"/>
	</g>
	<g>
		<path class="st0" d="M686.66,171.88c4.39,4.03,7.7,6.55,12.02,9.58l-3.31,3.38c-3.1-4.32-5.54-7.63-9.72-11.95
			c0.14,5.9,0.72,10.01,1.66,15.27h-4.68c0.94-5.26,1.51-9.36,1.66-15.34c-4.1,4.32-6.62,7.7-9.72,12.02l-3.31-3.38
			c4.32-3.02,7.71-5.47,12.03-9.65c-5.98,0.22-10.08,0.79-15.34,1.66v-4.75c5.26,0.94,9.36,1.51,15.27,1.73
			c-4.25-4.1-7.63-6.62-11.95-9.65l3.31-3.38c3.1,4.32,5.54,7.7,9.72,12.02c-0.14-5.98-0.72-10.15-1.66-15.34h4.68
			c-0.94,5.18-1.51,9.36-1.66,15.34c4.1-4.32,6.7-7.7,9.72-12.02l3.31,3.38c-4.32,3.02-7.7,5.54-12.02,9.65
			c5.98-0.14,10.15-0.79,15.34-1.73l0.07,4.75C696.81,172.52,692.7,172.02,686.66,171.88z"/>
	</g>
	<g>
		<path class="st0" d="M736.66,171.88c4.39,4.03,7.7,6.55,12.02,9.58l-3.31,3.38c-3.1-4.32-5.54-7.63-9.72-11.95
			c0.14,5.9,0.72,10.01,1.66,15.27h-4.68c0.94-5.26,1.51-9.36,1.66-15.34c-4.1,4.32-6.62,7.7-9.72,12.02l-3.31-3.38
			c4.32-3.02,7.71-5.47,12.03-9.65c-5.98,0.22-10.08,0.79-15.34,1.66v-4.75c5.26,0.94,9.36,1.51,15.27,1.73
			c-4.25-4.1-7.63-6.62-11.95-9.65l3.31-3.38c3.1,4.32,5.54,7.7,9.72,12.02c-0.14-5.98-0.72-10.15-1.66-15.34h4.68
			c-0.94,5.18-1.51,9.36-1.66,15.34c4.1-4.32,6.7-7.7,9.72-12.02l3.31,3.38c-4.32,3.02-7.7,5.54-12.02,9.65
			c5.98-0.14,10.15-0.79,15.34-1.73l0.07,4.75C746.81,172.52,742.7,172.02,736.66,171.88z"/>
	</g>
	<g>
		<path class="st0" d="M786.66,171.88c4.39,4.03,7.7,6.55,12.02,9.58l-3.31,3.38c-3.1-4.32-5.54-7.63-9.72-11.95
			c0.14,5.9,0.72,10.01,1.66,15.27h-4.68c0.94-5.26,1.51-9.36,1.66-15.34c-4.1,4.32-6.62,7.7-9.72,12.02l-3.31-3.38
			c4.32-3.02,7.71-5.47,12.03-9.65c-5.98,0.22-10.08,0.79-15.34,1.66v-4.75c5.26,0.94,9.36,1.51,15.27,1.73
			c-4.25-4.1-7.63-6.62-11.95-9.65l3.31-3.38c3.1,4.32,5.54,7.7,9.72,12.02c-0.14-5.98-0.72-10.15-1.66-15.34h4.68
			c-0.94,5.18-1.51,9.36-1.66,15.34c4.1-4.32,6.7-7.7,9.72-12.02l3.31,3.38c-4.32,3.02-7.7,5.54-12.02,9.65
			c5.98-0.14,10.15-0.79,15.34-1.73l0.07,4.75C796.81,172.52,792.7,172.02,786.66,171.88z"/>
	</g>
	<g>
		<path class="st0" d="M836.66,171.88c4.39,4.03,7.7,6.55,12.02,9.58l-3.31,3.38c-3.1-4.32-5.54-7.63-9.72-11.95
			c0.14,5.9,0.72,10.01,1.66,15.27h-4.68c0.94-5.26,1.51-9.36,1.66-15.34c-4.1,4.32-6.62,7.7-9.72,12.02l-3.31-3.38
			c4.32-3.02,7.71-5.47,12.03-9.65c-5.98,0.22-10.08,0.79-15.34,1.66v-4.75c5.26,0.94,9.36,1.51,15.27,1.73
			c-4.25-4.1-7.63-6.62-11.95-9.65l3.31-3.38c3.1,4.32,5.54,7.7,9.72,12.02c-0.14-5.98-0.72-10.15-1.66-15.34h4.68
			c-0.94,5.18-1.51,9.36-1.66,15.34c4.1-4.32,6.7-7.7,9.72-12.02l3.31,3.38c-4.32,3.02-7.7,5.54-12.02,9.65
			c5.98-0.14,10.15-0.79,15.34-1.73l0.07,4.75C846.81,172.52,842.7,172.02,836.66,171.88z"/>
	</g>
	<g>
		<path class="st0" d="M886.66,171.88c4.39,4.03,7.7,6.55,12.02,9.58l-3.31,3.38c-3.1-4.32-5.54-7.63-9.72-11.95
			c0.14,5.9,0.72,10.01,1.66,15.27h-4.68c0.94-5.26,1.51-9.36,1.66-15.34c-4.1,4.32-6.62,7.7-9.72,12.02l-3.31-3.38
			c4.32-3.02,7.71-5.47,12.03-9.65c-5.98,0.22-10.08,0.79-15.34,1.66v-4.75c5.26,0.94,9.36,1.51,15.27,1.73
			c-4.25-4.1-7.63-6.62-11.95-9.65l3.31-3.38c3.1,4.32,5.54,7.7,9.72,12.02c-0.14-5.98-0.72-10.15-1.66-15.34h4.68
			c-0.94,5.18-1.51,9.36-1.66,15.34c4.1-4.32,6.7-7.7,9.72-12.02l3.31,3.38c-4.32,3.02-7.7,5.54-12.02,9.65
			c5.98-0.14,10.15-0.79,15.34-1.73l0.07,4.75C896.81,172.52,892.7,172.02,886.66,171.88z"/>
	</g>
	<g>
		<path class="st0" d="M936.66,171.88c4.39,4.03,7.7,6.55,12.02,9.58l-3.31,3.38c-3.1-4.32-5.54-7.63-9.72-11.95
			c0.14,5.9,0.72,10.01,1.66,15.27h-4.68c0.94-5.26,1.51-9.36,1.66-15.34c-4.1,4.32-6.62,7.7-9.72,12.02l-3.31-3.38
			c4.32-3.02,7.71-5.47,12.03-9.65c-5.98,0.22-10.08,0.79-15.34,1.66v-4.75c5.26,0.94,9.36,1.51,15.27,1.73
			c-4.25-4.1-7.63-6.62-11.95-9.65l3.31-3.38c3.1,4.32,5.54,7.7,9.72,12.02c-0.14-5.98-0.72-10.15-1.66-15.34h4.68
			c-0.94,5.18-1.51,9.36-1.66,15.34c4.1-4.32,6.7-7.7,9.72-12.02l3.31,3.38c-4.32,3.02-7.7,5.54-12.02,9.65
			c5.98-0.14,10.15-0.79,15.34-1.73l0.07,4.75C946.81,172.52,942.7,172.02,936.66,171.88z"/>
	</g>
	<g>
		<path class="st0" d="M986.66,171.88c4.39,4.03,7.7,6.55,12.02,9.58l-3.31,3.38c-3.1-4.32-5.54-7.63-9.72-11.95
			c0.14,5.9,0.72,10.01,1.66,15.27h-4.68c0.94-5.26,1.51-9.36,1.66-15.34c-4.1,4.32-6.62,7.7-9.72,12.02l-3.31-3.38
			c4.32-3.02,7.71-5.47,12.03-9.65c-5.98,0.22-10.08,0.79-15.34,1.66v-4.75c5.26,0.94,9.36,1.51,15.27,1.73
			c-4.25-4.1-7.63-6.62-11.95-9.65l3.31-3.38c3.1,4.32,5.54,7.7,9.72,12.02c-0.14-5.98-0.72-10.15-1.66-15.34h4.68
			c-0.94,5.18-1.51,9.36-1.66,15.34c4.1-4.32,6.7-7.7,9.72-12.02l3.31,3.38c-4.32,3.02-7.7,5.54-12.02,9.65
			c5.98-0.14,10.15-0.79,15.34-1.73l0.07,4.75C996.81,172.52,992.7,172.02,986.66,171.88z"/>
	</g>
	<g>
		<path class="st0" d="M1036.66,171.88c4.39,4.03,7.7,6.55,12.02,9.58l-3.31,3.38c-3.1-4.32-5.54-7.63-9.72-11.95
			c0.14,5.9,0.72,10.01,1.66,15.27h-4.68c0.94-5.26,1.51-9.36,1.66-15.34c-4.1,4.32-6.62,7.7-9.72,12.02l-3.31-3.38
			c4.32-3.02,7.71-5.47,12.03-9.65c-5.98,0.22-10.08,0.79-15.34,1.66v-4.75c5.26,0.94,9.36,1.51,15.27,1.73
			c-4.25-4.1-7.63-6.62-11.95-9.65l3.31-3.38c3.1,4.32,5.54,7.7,9.72,12.02c-0.14-5.98-0.72-10.15-1.66-15.34h4.68
			c-0.94,5.18-1.51,9.36-1.66,15.34c4.1-4.32,6.7-7.7,9.72-12.02l3.31,3.38c-4.32,3.02-7.7,5.54-12.02,9.65
			c5.98-0.14,10.15-0.79,15.34-1.73l0.07,4.75C1046.81,172.52,1042.7,172.02,1036.66,171.88z"/>
	</g>
	<g>
		<path class="st0" d="M1086.66,171.88c4.39,4.03,7.7,6.55,12.02,9.58l-3.31,3.38c-3.1-4.32-5.54-7.63-9.72-11.95
			c0.14,5.9,0.72,10.01,1.66,15.27h-4.68c0.94-5.26,1.51-9.36,1.66-15.34c-4.1,4.32-6.62,7.7-9.72,12.02l-3.31-3.38
			c4.32-3.02,7.71-5.47,12.03-9.65c-5.98,0.22-10.08,0.79-15.34,1.66v-4.75c5.26,0.94,9.36,1.51,15.27,1.73
			c-4.25-4.1-7.63-6.62-11.95-9.65l3.31-3.38c3.1,4.32,5.54,7.7,9.72,12.02c-0.14-5.98-0.72-10.15-1.66-15.34h4.68
			c-0.94,5.18-1.51,9.36-1.66,15.34c4.1-4.32,6.7-7.7,9.72-12.02l3.31,3.38c-4.32,3.02-7.7,5.54-12.02,9.65
			c5.98-0.14,10.15-0.79,15.34-1.73l0.07,4.75C1096.81,172.52,1092.7,172.02,1086.66,171.88z"/>
	</g>
	<g>
		<path class="st0" d="M1136.66,171.88c4.39,4.03,7.7,6.55,12.02,9.58l-3.31,3.38c-3.1-4.32-5.54-7.63-9.72-11.95
			c0.14,5.9,0.72,10.01,1.66,15.27h-4.68c0.94-5.26,1.51-9.36,1.66-15.34c-4.1,4.32-6.62,7.7-9.72,12.02l-3.31-3.38
			c4.32-3.02,7.71-5.47,12.03-9.65c-5.98,0.22-10.08,0.79-15.34,1.66v-4.75c5.26,0.94,9.36,1.51,15.27,1.73
			c-4.25-4.1-7.63-6.62-11.95-9.65l3.31-3.38c3.1,4.32,5.54,7.7,9.72,12.02c-0.14-5.98-0.72-10.15-1.66-15.34h4.68
			c-0.94,5.18-1.51,9.36-1.66,15.34c4.1-4.32,6.7-7.7,9.72-12.02l3.31,3.38c-4.32,3.02-7.7,5.54-12.02,9.65
			c5.98-0.14,10.15-0.79,15.34-1.73l0.07,4.75C1146.81,172.52,1142.7,172.02,1136.66,171.88z"/>
	</g>
	<g>
		<path class="st0" d="M1186.66,171.88c4.39,4.03,7.7,6.55,12.02,9.58l-3.31,3.38c-3.1-4.32-5.54-7.63-9.72-11.95
			c0.14,5.9,0.72,10.01,1.66,15.27h-4.68c0.94-5.26,1.51-9.36,1.66-15.34c-4.1,4.32-6.62,7.7-9.72,12.02l-3.31-3.38
			c4.32-3.02,7.71-5.47,12.03-9.65c-5.98,0.22-10.08,0.79-15.34,1.66v-4.75c5.26,0.94,9.36,1.51,15.27,1.73
			c-4.25-4.1-7.63-6.62-11.95-9.65l3.31-3.38c3.1,4.32,5.54,7.7,9.72,12.02c-0.14-5.98-0.72-10.15-1.66-15.34h4.68
			c-0.94,5.18-1.51,9.36-1.66,15.34c4.1-4.32,6.7-7.7,9.72-12.02l3.31,3.38c-4.32,3.02-7.7,5.54-12.02,9.65
			c5.98-0.14,10.15-0.79,15.34-1.73l0.07,4.75C1196.81,172.52,1192.7,172.02,1186.66,171.88z"/>
	</g>
	<g>
		<path class="st0" d="M1236.66,171.88c4.39,4.03,7.7,6.55,12.02,9.58l-3.31,3.38c-3.1-4.32-5.54-7.63-9.72-11.95
			c0.14,5.9,0.72,10.01,1.66,15.27h-4.68c0.94-5.26,1.51-9.36,1.66-15.34c-4.1,4.32-6.62,7.7-9.72,12.02l-3.31-3.38
			c4.32-3.02,7.71-5.47,12.03-9.65c-5.98,0.22-10.08,0.79-15.34,1.66v-4.75c5.26,0.94,9.36,1.51,15.27,1.73
			c-4.25-4.1-7.63-6.62-11.95-9.65l3.31-3.38c3.1,4.32,5.54,7.7,9.72,12.02c-0.14-5.98-0.72-10.15-1.66-15.34h4.68
			c-0.94,5.18-1.51,9.36-1.66,15.34c4.1-4.32,6.7-7.7,9.72-12.02l3.31,3.38c-4.32,3.02-7.7,5.54-12.02,9.65
			c5.98-0.14,10.15-0.79,15.34-1.73l0.07,4.75C1246.81,172.52,1242.7,172.02,1236.66,171.88z"/>
	</g>
	<g>
		<path class="st0" d="M1286.66,171.88c4.39,4.03,7.7,6.55,12.02,9.58l-3.31,3.38c-3.1-4.32-5.54-7.63-9.72-11.95
			c0.14,5.9,0.72,10.01,1.66,15.27h-4.68c0.94-5.26,1.51-9.36,1.66-15.34c-4.1,4.32-6.62,7.7-9.72,12.02l-3.31-3.38
			c4.32-3.02,7.71-5.47,12.03-9.65c-5.98,0.22-10.08,0.79-15.34,1.66v-4.75c5.26,0.94,9.36,1.51,15.27,1.73
			c-4.25-4.1-7.63-6.62-11.95-9.65l3.31-3.38c3.1,4.32,5.54,7.7,9.72,12.02c-0.14-5.98-0.72-10.15-1.66-15.34h4.68
			c-0.94,5.18-1.51,9.36-1.66,15.34c4.1-4.32,6.7-7.7,9.72-12.02l3.31,3.38c-4.32,3.02-7.7,5.54-12.02,9.65
			c5.98-0.14,10.15-0.79,15.34-1.73l0.07,4.75C1296.81,172.52,1292.7,172.02,1286.66,171.88z"/>
	</g>
	<g>
		<path class="st0" d="M1336.66,171.88c4.39,4.03,7.7,6.55,12.02,9.58l-3.31,3.38c-3.1-4.32-5.54-7.63-9.72-11.95
			c0.14,5.9,0.72,10.01,1.66,15.27h-4.68c0.94-5.26,1.51-9.36,1.66-15.34c-4.1,4.32-6.62,7.7-9.72,12.02l-3.31-3.38
			c4.32-3.02,7.71-5.47,12.03-9.65c-5.98,0.22-10.08,0.79-15.34,1.66v-4.75c5.26,0.94,9.36,1.51,15.27,1.73
			c-4.25-4.1-7.63-6.62-11.95-9.65l3.31-3.38c3.1,4.32,5.54,7.7,9.72,12.02c-0.14-5.98-0.72-10.15-1.66-15.34h4.68
			c-0.94,5.18-1.51,9.36-1.66,15.34c4.1-4.32,6.7-7.7,9.72-12.02l3.31,3.38c-4.32,3.02-7.7,5.54-12.02,9.65
			c5.98-0.14,10.15-0.79,15.34-1.73l0.07,4.75C1346.81,172.52,1342.7,172.02,1336.66,171.88z"/>
	</g>
	<g>
		<path class="st0" d="M1386.66,171.88c4.39,4.03,7.7,6.55,12.02,9.58l-3.31,3.38c-3.1-4.32-5.54-7.63-9.72-11.95
			c0.14,5.9,0.72,10.01,1.66,15.27h-4.68c0.94-5.26,1.51-9.36,1.66-15.34c-4.1,4.32-6.62,7.7-9.72,12.02l-3.31-3.38
			c4.32-3.02,7.71-5.47,12.03-9.65c-5.98,0.22-10.08,0.79-15.34,1.66v-4.75c5.26,0.94,9.36,1.51,15.27,1.73
			c-4.25-4.1-7.63-6.62-11.95-9.65l3.31-3.38c3.1,4.32,5.54,7.7,9.72,12.02c-0.14-5.98-0.72-10.15-1.66-15.34h4.68
			c-0.94,5.18-1.51,9.36-1.66,15.34c4.1-4.32,6.7-7.7,9.72-12.02l3.31,3.38c-4.32,3.02-7.7,5.54-12.02,9.65
			c5.98-0.14,10.15-0.79,15.34-1.73l0.07,4.75C1396.81,172.52,1392.7,172.02,1386.66,171.88z"/>
	</g>
	<g>
		<path class="st0" d="M1436.66,171.88c4.39,4.03,7.7,6.55,12.02,9.58l-3.31,3.38c-3.1-4.32-5.54-7.63-9.72-11.95
			c0.14,5.9,0.72,10.01,1.66,15.27h-4.68c0.94-5.26,1.51-9.36,1.66-15.34c-4.1,4.32-6.62,7.7-9.72,12.02l-3.31-3.38
			c4.32-3.02,7.71-5.47,12.03-9.65c-5.98,0.22-10.08,0.79-15.34,1.66v-4.75c5.26,0.94,9.36,1.51,15.27,1.73
			c-4.25-4.1-7.63-6.62-11.95-9.65l3.31-3.38c3.1,4.32,5.54,7.7,9.72,12.02c-0.14-5.98-0.72-10.15-1.66-15.34h4.68
			c-0.94,5.18-1.51,9.36-1.66,15.34c4.1-4.32,6.7-7.7,9.72-12.02l3.31,3.38c-4.32,3.02-7.7,5.54-12.02,9.65
			c5.98-0.14,10.15-0.79,15.34-1.73l0.07,4.75C1446.81,172.52,1442.7,172.02,1436.66,171.88z"/>
	</g>
	<g>
		<path class="st0" d="M1486.66,171.88c4.39,4.03,7.7,6.55,12.02,9.58l-3.31,3.38c-3.1-4.32-5.54-7.63-9.72-11.95
			c0.14,5.9,0.72,10.01,1.66,15.27h-4.68c0.94-5.26,1.51-9.36,1.66-15.34c-4.1,4.32-6.62,7.7-9.72,12.02l-3.31-3.38
			c4.32-3.02,7.71-5.47,12.03-9.65c-5.98,0.22-10.08,0.79-15.34,1.66v-4.75c5.26,0.94,9.36,1.51,15.27,1.73
			c-4.25-4.1-7.63-6.62-11.95-9.65l3.31-3.38c3.1,4.32,5.54,7.7,9.72,12.02c-0.14-5.98-0.72-10.15-1.66-15.34h4.68
			c-0.94,5.18-1.51,9.36-1.66,15.34c4.1-4.32,6.7-7.7,9.72-12.02l3.31,3.38c-4.32,3.02-7.7,5.54-12.02,9.65
			c5.98-0.14,10.15-0.79,15.34-1.73l0.07,4.75C1496.81,172.52,1492.7,172.02,1486.66,171.88z"/>
	</g>
	<g>
		<path class="st0" d="M1536.66,171.88c4.39,4.03,7.7,6.55,12.02,9.58l-3.31,3.38c-3.1-4.32-5.54-7.63-9.72-11.95
			c0.14,5.9,0.72,10.01,1.66,15.27h-4.68c0.94-5.26,1.51-9.36,1.66-15.34c-4.1,4.32-6.62,7.7-9.72,12.02l-3.31-3.38
			c4.32-3.02,7.71-5.47,12.03-9.65c-5.98,0.22-10.08,0.79-15.34,1.66v-4.75c5.26,0.94,9.36,1.51,15.27,1.73
			c-4.25-4.1-7.63-6.62-11.95-9.65l3.31-3.38c3.1,4.32,5.54,7.7,9.72,12.02c-0.14-5.98-0.72-10.15-1.66-15.34h4.68
			c-0.94,5.18-1.51,9.36-1.66,15.34c4.1-4.32,6.7-7.7,9.72-12.02l3.31,3.38c-4.32,3.02-7.7,5.54-12.02,9.65
			c5.98-0.14,10.15-0.79,15.34-1.73l0.07,4.75C1546.81,172.52,1542.7,172.02,1536.66,171.88z"/>
	</g>
	<g>
		<path class="st0" d="M1586.66,171.88c4.39,4.03,7.7,6.55,12.02,9.58l-3.31,3.38c-3.1-4.32-5.54-7.63-9.72-11.95
			c0.14,5.9,0.72,10.01,1.66,15.27h-4.68c0.94-5.26,1.51-9.36,1.66-15.34c-4.1,4.32-6.62,7.7-9.72,12.02l-3.31-3.38
			c4.32-3.02,7.71-5.47,12.03-9.65c-5.98,0.22-10.08,0.79-15.34,1.66v-4.75c5.26,0.94,9.36,1.51,15.27,1.73
			c-4.25-4.1-7.63-6.62-11.95-9.65l3.31-3.38c3.1,4.32,5.54,7.7,9.72,12.02c-0.14-5.98-0.72-10.15-1.66-15.34h4.68
			c-0.94,5.18-1.51,9.36-1.66,15.34c4.1-4.32,6.7-7.7,9.72-12.02l3.31,3.38c-4.32,3.02-7.7,5.54-12.02,9.65
			c5.98-0.14,10.15-0.79,15.34-1.73l0.07,4.75C1596.81,172.52,1592.7,172.02,1586.66,171.88z"/>
	</g>
	<g>
		<path class="st0" d="M1586.66,221.88c4.39,4.03,7.7,6.55,12.02,9.58l-3.31,3.38c-3.1-4.32-5.54-7.63-9.72-11.95
			c0.14,5.9,0.72,10.01,1.66,15.27h-4.68c0.94-5.26,1.51-9.36,1.66-15.34c-4.1,4.32-6.62,7.7-9.72,12.02l-3.31-3.38
			c4.32-3.02,7.71-5.47,12.03-9.65c-5.98,0.22-10.08,0.79-15.34,1.66v-4.75c5.26,0.94,9.36,1.51,15.27,1.73
			c-4.25-4.1-7.63-6.62-11.95-9.65l3.31-3.38c3.1,4.32,5.54,7.7,9.72,12.02c-0.14-5.98-0.72-10.15-1.66-15.34h4.68
			c-0.94,5.18-1.51,9.36-1.66,15.34c4.1-4.32,6.7-7.7,9.72-12.02l3.31,3.38c-4.32,3.02-7.7,5.54-12.02,9.65
			c5.98-0.14,10.15-0.79,15.34-1.73l0.07,4.75C1596.81,222.52,1592.7,222.02,1586.66,221.88z"/>
	</g>
	<g>
		<path class="st0" d="M1586.66,271.88c4.39,4.03,7.7,6.55,12.02,9.58l-3.31,3.38c-3.1-4.32-5.54-7.63-9.72-11.95
			c0.14,5.9,0.72,10.01,1.66,15.27h-4.68c0.94-5.26,1.51-9.36,1.66-15.34c-4.1,4.32-6.62,7.7-9.72,12.02l-3.31-3.38
			c4.32-3.02,7.71-5.47,12.03-9.65c-5.98,0.22-10.08,0.79-15.34,1.66v-4.75c5.26,0.94,9.36,1.51,15.27,1.73
			c-4.25-4.1-7.63-6.62-11.95-9.65l3.31-3.38c3.1,4.32,5.54,7.7,9.72,12.02c-0.14-5.98-0.72-10.15-1.66-15.34h4.68
			c-0.94,5.18-1.51,9.36-1.66,15.34c4.1-4.32,6.7-7.7,9.72-12.02l3.31,3.38c-4.32,3.02-7.7,5.54-12.02,9.65
			c5.98-0.14,10.15-0.79,15.34-1.73l0.07,4.75C1596.81,272.52,1592.7,272.02,1586.66,271.88z"/>
	</g>
	<g>
		<path class="st0" d="M1586.66,321.88c4.39,4.03,7.7,6.55,12.02,9.58l-3.31,3.38c-3.1-4.32-5.54-7.63-9.72-11.95
			c0.14,5.9,0.72,10.01,1.66,15.27h-4.68c0.94-5.26,1.51-9.36,1.66-15.34c-4.1,4.32-6.62,7.7-9.72,12.02l-3.31-3.38
			c4.32-3.02,7.71-5.47,12.03-9.65c-5.98,0.22-10.08,0.79-15.34,1.66v-4.75c5.26,0.94,9.36,1.51,15.27,1.73
			c-4.25-4.1-7.63-6.62-11.95-9.65l3.31-3.38c3.1,4.32,5.54,7.7,9.72,12.02c-0.14-5.98-0.72-10.15-1.66-15.34h4.68
			c-0.94,5.18-1.51,9.36-1.66,15.34c4.1-4.32,6.7-7.7,9.72-12.02l3.31,3.38c-4.32,3.02-7.7,5.54-12.02,9.65
			c5.98-0.14,10.15-0.79,15.34-1.73l0.07,4.75C1596.81,322.52,1592.7,322.02,1586.66,321.88z"/>
	</g>
	<g>
		<path class="st0" d="M1586.66,371.88c4.39,4.03,7.7,6.55,12.02,9.58l-3.31,3.38c-3.1-4.32-5.54-7.63-9.72-11.95
			c0.14,5.9,0.72,10.01,1.66,15.27h-4.68c0.94-5.26,1.51-9.36,1.66-15.34c-4.1,4.32-6.62,7.7-9.72,12.02l-3.31-3.38
			c4.32-3.02,7.71-5.47,12.03-9.65c-5.98,0.22-10.08,0.79-15.34,1.66v-4.75c5.26,0.94,9.36,1.51,15.27,1.73
			c-4.25-4.1-7.63-6.62-11.95-9.65l3.31-3.38c3.1,4.32,5.54,7.7,9.72,12.02c-0.14-5.98-0.72-10.15-1.66-15.34h4.68
			c-0.94,5.18-1.51,9.36-1.66,15.34c4.1-4.32,6.7-7.7,9.72-12.02l3.31,3.38c-4.32,3.02-7.7,5.54-12.02,9.65
			c5.98-0.14,10.15-0.79,15.34-1.73l0.07,4.75C1596.81,372.52,1592.7,372.02,1586.66,371.88z"/>
	</g>
	<g>
		<path class="st0" d="M1586.66,421.88c4.39,4.03,7.7,6.55,12.02,9.58l-3.31,3.38c-3.1-4.32-5.54-7.63-9.72-11.95
			c0.14,5.9,0.72,10.01,1.66,15.27h-4.68c0.94-5.26,1.51-9.36,1.66-15.34c-4.1,4.32-6.62,7.7-9.72,12.02l-3.31-3.38
			c4.32-3.02,7.71-5.47,12.03-9.65c-5.98,0.22-10.08,0.79-15.34,1.66v-4.75c5.26,0.94,9.36,1.51,15.27,1.73
			c-4.25-4.1-7.63-6.62-11.95-9.65l3.31-3.38c3.1,4.32,5.54,7.7,9.72,12.02c-0.14-5.98-0.72-10.15-1.66-15.34h4.68
			c-0.94,5.18-1.51,9.36-1.66,15.34c4.1-4.32,6.7-7.7,9.72-12.02l3.31,3.38c-4.32,3.02-7.7,5.54-12.02,9.65
			c5.98-0.14,10.15-0.79,15.34-1.73l0.07,4.75C1596.81,422.52,1592.7,422.02,1586.66,421.88z"/>
	</g>
	<g>
		<path class="st0" d="M1586.66,471.88c4.39,4.03,7.7,6.55,12.02,9.58l-3.31,3.38c-3.1-4.32-5.54-7.63-9.72-11.95
			c0.14,5.9,0.72,10.01,1.66,15.27h-4.68c0.94-5.26,1.51-9.36,1.66-15.34c-4.1,4.32-6.62,7.7-9.72,12.02l-3.31-3.38
			c4.32-3.02,7.71-5.47,12.03-9.65c-5.98,0.22-10.08,0.79-15.34,1.66v-4.75c5.26,0.94,9.36,1.51,15.27,1.73
			c-4.25-4.1-7.63-6.62-11.95-9.65l3.31-3.38c3.1,4.32,5.54,7.7,9.72,12.02c-0.14-5.98-0.72-10.15-1.66-15.34h4.68
			c-0.94,5.18-1.51,9.36-1.66,15.34c4.1-4.32,6.7-7.7,9.72-12.02l3.31,3.38c-4.32,3.02-7.7,5.54-12.02,9.65
			c5.98-0.14,10.15-0.79,15.34-1.73l0.07,4.75C1596.81,472.52,1592.7,472.02,1586.66,471.88z"/>
	</g>
	<g>
		<path class="st0" d="M1586.66,521.88c4.39,4.03,7.7,6.55,12.02,9.58l-3.31,3.38c-3.1-4.32-5.54-7.63-9.72-11.95
			c0.14,5.9,0.72,10.01,1.66,15.27h-4.68c0.94-5.26,1.51-9.36,1.66-15.34c-4.1,4.32-6.62,7.7-9.72,12.02l-3.31-3.38
			c4.32-3.02,7.71-5.47,12.03-9.65c-5.98,0.22-10.08,0.79-15.34,1.66v-4.75c5.26,0.94,9.36,1.51,15.27,1.73
			c-4.25-4.1-7.63-6.62-11.95-9.65l3.31-3.38c3.1,4.32,5.54,7.7,9.72,12.02c-0.14-5.98-0.72-10.15-1.66-15.34h4.68
			c-0.94,5.18-1.51,9.36-1.66,15.34c4.1-4.32,6.7-7.7,9.72-12.02l3.31,3.38c-4.32,3.02-7.7,5.54-12.02,9.65
			c5.98-0.14,10.15-0.79,15.34-1.73l0.07,4.75C1596.81,522.52,1592.7,522.02,1586.66,521.88z"/>
	</g>
	<g>
		<path class="st0" d="M1586.66,571.88c4.39,4.03,7.7,6.55,12.02,9.58l-3.31,3.38c-3.1-4.32-5.54-7.63-9.72-11.95
			c0.14,5.9,0.72,10.01,1.66,15.27h-4.68c0.94-5.26,1.51-9.36,1.66-15.34c-4.1,4.32-6.62,7.7-9.72,12.02l-3.31-3.38
			c4.32-3.02,7.71-5.47,12.03-9.65c-5.98,0.22-10.08,0.79-15.34,1.66v-4.75c5.26,0.94,9.36,1.51,15.27,1.73
			c-4.25-4.1-7.63-6.62-11.95-9.65l3.31-3.38c3.1,4.32,5.54,7.7,9.72,12.02c-0.14-5.98-0.72-10.15-1.66-15.34h4.68
			c-0.94,5.18-1.51,9.36-1.66,15.34c4.1-4.32,6.7-7.7,9.72-12.02l3.31,3.38c-4.32,3.02-7.7,5.54-12.02,9.65
			c5.98-0.14,10.15-0.79,15.34-1.73l0.07,4.75C1596.81,572.52,1592.7,572.02,1586.66,571.88z"/>
	</g>
	<g>
		<path class="st0" d="M1586.66,621.88c4.39,4.03,7.7,6.55,12.02,9.58l-3.31,3.38c-3.1-4.32-5.54-7.63-9.72-11.95
			c0.14,5.9,0.72,10.01,1.66,15.27h-4.68c0.94-5.26,1.51-9.36,1.66-15.34c-4.1,4.32-6.62,7.7-9.72,12.02l-3.31-3.38
			c4.32-3.02,7.71-5.47,12.03-9.65c-5.98,0.22-10.08,0.79-15.34,1.66v-4.75c5.26,0.94,9.36,1.51,15.27,1.73
			c-4.25-4.1-7.63-6.62-11.95-9.65l3.31-3.38c3.1,4.32,5.54,7.7,9.72,12.02c-0.14-5.98-0.72-10.15-1.66-15.34h4.68
			c-0.94,5.18-1.51,9.36-1.66,15.34c4.1-4.32,6.7-7.7,9.72-12.02l3.31,3.38c-4.32,3.02-7.7,5.54-12.02,9.65
			c5.98-0.14,10.15-0.79,15.34-1.73l0.07,4.75C1596.81,622.52,1592.7,622.02,1586.66,621.88z"/>
	</g>
	<g>
		<path class="st0" d="M1586.66,671.88c4.39,4.03,7.7,6.55,12.02,9.58l-3.31,3.38c-3.1-4.32-5.54-7.63-9.72-11.95
			c0.14,5.9,0.72,10.01,1.66,15.27h-4.68c0.94-5.26,1.51-9.36,1.66-15.34c-4.1,4.32-6.62,7.7-9.72,12.02l-3.31-3.38
			c4.32-3.02,7.71-5.47,12.03-9.65c-5.98,0.22-10.08,0.79-15.34,1.66v-4.75c5.26,0.94,9.36,1.51,15.27,1.73
			c-4.25-4.1-7.63-6.62-11.95-9.65l3.31-3.38c3.1,4.32,5.54,7.7,9.72,12.02c-0.14-5.98-0.72-10.15-1.66-15.34h4.68
			c-0.94,5.18-1.51,9.36-1.66,15.34c4.1-4.32,6.7-7.7,9.72-12.02l3.31,3.38c-4.32,3.02-7.7,5.54-12.02,9.65
			c5.98-0.14,10.15-0.79,15.34-1.73l0.07,4.75C1596.81,672.52,1592.7,672.02,1586.66,671.88z"/>
	</g>
	<g>
		<path class="st0" d="M1586.66,721.88c4.39,4.03,7.7,6.55,12.02,9.58l-3.31,3.38c-3.1-4.32-5.54-7.63-9.72-11.95
			c0.14,5.9,0.72,10.01,1.66,15.27h-4.68c0.94-5.26,1.51-9.36,1.66-15.34c-4.1,4.32-6.62,7.7-9.72,12.02l-3.31-3.38
			c4.32-3.02,7.71-5.47,12.03-9.65c-5.98,0.22-10.08,0.79-15.34,1.66v-4.75c5.26,0.94,9.36,1.51,15.27,1.73
			c-4.25-4.1-7.63-6.62-11.95-9.65l3.31-3.38c3.1,4.32,5.54,7.7,9.72,12.02c-0.14-5.98-0.72-10.15-1.66-15.34h4.68
			c-0.94,5.18-1.51,9.36-1.66,15.34c4.1-4.32,6.7-7.7,9.72-12.02l3.31,3.38c-4.32,3.02-7.7,5.54-12.02,9.65
			c5.98-0.14,10.15-0.79,15.34-1.73l0.07,4.75C1596.81,722.52,1592.7,722.02,1586.66,721.88z"/>
	</g>
	<g>
		<path class="st0" d="M1586.66,771.88c4.39,4.03,7.7,6.55,12.02,9.58l-3.31,3.38c-3.1-4.32-5.54-7.63-9.72-11.95
			c0.14,5.9,0.72,10.01,1.66,15.27h-4.68c0.94-5.26,1.51-9.36,1.66-15.34c-4.1,4.32-6.62,7.7-9.72,12.02l-3.31-3.38
			c4.32-3.02,7.71-5.47,12.03-9.65c-5.98,0.22-10.08,0.79-15.34,1.66v-4.75c5.26,0.94,9.36,1.51,15.27,1.73
			c-4.25-4.1-7.63-6.62-11.95-9.65l3.31-3.38c3.1,4.32,5.54,7.7,9.72,12.02c-0.14-5.98-0.72-10.15-1.66-15.34h4.68
			c-0.94,5.18-1.51,9.36-1.66,15.34c4.1-4.32,6.7-7.7,9.72-12.02l3.31,3.38c-4.32,3.02-7.7,5.54-12.02,9.65
			c5.98-0.14,10.15-0.79,15.34-1.73l0.07,4.75C1596.81,772.52,1592.7,772.02,1586.66,771.88z"/>
	</g>
	<g>
		<path class="st0" d="M1586.66,821.88c4.39,4.03,7.7,6.55,12.02,9.58l-3.31,3.38c-3.1-4.32-5.54-7.63-9.72-11.95
			c0.14,5.9,0.72,10.01,1.66,15.27h-4.68c0.94-5.26,1.51-9.36,1.66-15.34c-4.1,4.32-6.62,7.7-9.72,12.02l-3.31-3.38
			c4.32-3.02,7.71-5.47,12.03-9.65c-5.98,0.22-10.08,0.79-15.34,1.66v-4.75c5.26,0.94,9.36,1.51,15.27,1.73
			c-4.25-4.1-7.63-6.62-11.95-9.65l3.31-3.38c3.1,4.32,5.54,7.7,9.72,12.02c-0.14-5.98-0.72-10.15-1.66-15.34h4.68
			c-0.94,5.18-1.51,9.36-1.66,15.34c4.1-4.32,6.7-7.7,9.72-12.02l3.31,3.38c-4.32,3.02-7.7,5.54-12.02,9.65
			c5.98-0.14,10.15-0.79,15.34-1.73l0.07,4.75C1596.81,822.52,1592.7,822.02,1586.66,821.88z"/>
	</g>
	<g>
		<path class="st0" d="M336.66,821.88c4.39,4.03,7.7,6.55,12.02,9.58l-3.31,3.38c-3.1-4.32-5.54-7.63-9.72-11.95
			c0.14,5.9,0.72,10.01,1.66,15.27h-4.68c0.94-5.26,1.51-9.36,1.66-15.34c-4.1,4.32-6.62,7.7-9.72,12.02l-3.31-3.38
			c4.32-3.02,7.71-5.47,12.03-9.65c-5.98,0.22-10.08,0.79-15.34,1.66v-4.75c5.26,0.94,9.36,1.51,15.27,1.73
			c-4.25-4.1-7.63-6.62-11.95-9.65l3.31-3.38c3.1,4.32,5.54,7.7,9.72,12.02c-0.14-5.98-0.72-10.15-1.66-15.34h4.68
			c-0.94,5.18-1.51,9.36-1.66,15.34c4.1-4.32,6.7-7.7,9.72-12.02l3.31,3.38c-4.32,3.02-7.7,5.54-12.02,9.65
			c5.98-0.14,10.15-0.79,15.34-1.73l0.07,4.75C346.81,822.52,342.7,822.02,336.66,821.88z"/>
	</g>
	<g>
		<path class="st0" d="M386.66,821.88c4.39,4.03,7.7,6.55,12.02,9.58l-3.31,3.38c-3.1-4.32-5.54-7.63-9.72-11.95
			c0.14,5.9,0.72,10.01,1.66,15.27h-4.68c0.94-5.26,1.51-9.36,1.66-15.34c-4.1,4.32-6.62,7.7-9.72,12.02l-3.31-3.38
			c4.32-3.02,7.71-5.47,12.03-9.65c-5.98,0.22-10.08,0.79-15.34,1.66v-4.75c5.26,0.94,9.36,1.51,15.27,1.73
			c-4.25-4.1-7.63-6.62-11.95-9.65l3.31-3.38c3.1,4.32,5.54,7.7,9.72,12.02c-0.14-5.98-0.72-10.15-1.66-15.34h4.68
			c-0.94,5.18-1.51,9.36-1.66,15.34c4.1-4.32,6.7-7.7,9.72-12.02l3.31,3.38c-4.32,3.02-7.7,5.54-12.02,9.65
			c5.98-0.14,10.15-0.79,15.34-1.73l0.07,4.75C396.81,822.52,392.7,822.02,386.66,821.88z"/>
	</g>
	<g>
		<path class="st0" d="M436.66,821.88c4.39,4.03,7.7,6.55,12.02,9.58l-3.31,3.38c-3.1-4.32-5.54-7.63-9.72-11.95
			c0.14,5.9,0.72,10.01,1.66,15.27h-4.68c0.94-5.26,1.51-9.36,1.66-15.34c-4.1,4.32-6.62,7.7-9.72,12.02l-3.31-3.38
			c4.32-3.02,7.71-5.47,12.03-9.65c-5.98,0.22-10.08,0.79-15.34,1.66v-4.75c5.26,0.94,9.36,1.51,15.27,1.73
			c-4.25-4.1-7.63-6.62-11.95-9.65l3.31-3.38c3.1,4.32,5.54,7.7,9.72,12.02c-0.14-5.98-0.72-10.15-1.66-15.34h4.68
			c-0.94,5.18-1.51,9.36-1.66,15.34c4.1-4.32,6.7-7.7,9.72-12.02l3.31,3.38c-4.32,3.02-7.7,5.54-12.02,9.65
			c5.98-0.14,10.15-0.79,15.34-1.73l0.07,4.75C446.81,822.52,442.7,822.02,436.66,821.88z"/>
	</g>
	<g>
		<path class="st0" d="M486.66,821.88c4.39,4.03,7.7,6.55,12.02,9.58l-3.31,3.38c-3.1-4.32-5.54-7.63-9.72-11.95
			c0.14,5.9,0.72,10.01,1.66,15.27h-4.68c0.94-5.26,1.51-9.36,1.66-15.34c-4.1,4.32-6.62,7.7-9.72,12.02l-3.31-3.38
			c4.32-3.02,7.71-5.47,12.03-9.65c-5.98,0.22-10.08,0.79-15.34,1.66v-4.75c5.26,0.94,9.36,1.51,15.27,1.73
			c-4.25-4.1-7.63-6.62-11.95-9.65l3.31-3.38c3.1,4.32,5.54,7.7,9.72,12.02c-0.14-5.98-0.72-10.15-1.66-15.34h4.68
			c-0.94,5.18-1.51,9.36-1.66,15.34c4.1-4.32,6.7-7.7,9.72-12.02l3.31,3.38c-4.32,3.02-7.7,5.54-12.02,9.65
			c5.98-0.14,10.15-0.79,15.34-1.73l0.07,4.75C496.81,822.52,492.7,822.02,486.66,821.88z"/>
	</g>
	<g>
		<path class="st0" d="M536.66,821.88c4.39,4.03,7.7,6.55,12.02,9.58l-3.31,3.38c-3.1-4.32-5.54-7.63-9.72-11.95
			c0.14,5.9,0.72,10.01,1.66,15.27h-4.68c0.94-5.26,1.51-9.36,1.66-15.34c-4.1,4.32-6.62,7.7-9.72,12.02l-3.31-3.38
			c4.32-3.02,7.71-5.47,12.03-9.65c-5.98,0.22-10.08,0.79-15.34,1.66v-4.75c5.26,0.94,9.36,1.51,15.27,1.73
			c-4.25-4.1-7.63-6.62-11.95-9.65l3.31-3.38c3.1,4.32,5.54,7.7,9.72,12.02c-0.14-5.98-0.72-10.15-1.66-15.34h4.68
			c-0.94,5.18-1.51,9.36-1.66,15.34c4.1-4.32,6.7-7.7,9.72-12.02l3.31,3.38c-4.32,3.02-7.7,5.54-12.02,9.65
			c5.98-0.14,10.15-0.79,15.34-1.73l0.07,4.75C546.81,822.52,542.7,822.02,536.66,821.88z"/>
	</g>
	<g>
		<path class="st0" d="M586.66,821.88c4.39,4.03,7.7,6.55,12.02,9.58l-3.31,3.38c-3.1-4.32-5.54-7.63-9.72-11.95
			c0.14,5.9,0.72,10.01,1.66,15.27h-4.68c0.94-5.26,1.51-9.36,1.66-15.34c-4.1,4.32-6.62,7.7-9.72,12.02l-3.31-3.38
			c4.32-3.02,7.71-5.47,12.03-9.65c-5.98,0.22-10.08,0.79-15.34,1.66v-4.75c5.26,0.94,9.36,1.51,15.27,1.73
			c-4.25-4.1-7.63-6.62-11.95-9.65l3.31-3.38c3.1,4.32,5.54,7.7,9.72,12.02c-0.14-5.98-0.72-10.15-1.66-15.34h4.68
			c-0.94,5.18-1.51,9.36-1.66,15.34c4.1-4.32,6.7-7.7,9.72-12.02l3.31,3.38c-4.32,3.02-7.7,5.54-12.02,9.65
			c5.98-0.14,10.15-0.79,15.34-1.73l0.07,4.75C596.81,822.52,592.7,822.02,586.66,821.88z"/>
	</g>
	<g>
		<path class="st0" d="M636.66,821.88c4.39,4.03,7.7,6.55,12.02,9.58l-3.31,3.38c-3.1-4.32-5.54-7.63-9.72-11.95
			c0.14,5.9,0.72,10.01,1.66,15.27h-4.68c0.94-5.26,1.51-9.36,1.66-15.34c-4.1,4.32-6.62,7.7-9.72,12.02l-3.31-3.38
			c4.32-3.02,7.71-5.47,12.03-9.65c-5.98,0.22-10.08,0.79-15.34,1.66v-4.75c5.26,0.94,9.36,1.51,15.27,1.73
			c-4.25-4.1-7.63-6.62-11.95-9.65l3.31-3.38c3.1,4.32,5.54,7.7,9.72,12.02c-0.14-5.98-0.72-10.15-1.66-15.34h4.68
			c-0.94,5.18-1.51,9.36-1.66,15.34c4.1-4.32,6.7-7.7,9.72-12.02l3.31,3.38c-4.32,3.02-7.7,5.54-12.02,9.65
			c5.98-0.14,10.15-0.79,15.34-1.73l0.07,4.75C646.81,822.52,642.7,822.02,636.66,821.88z"/>
	</g>
	<g>
		<path class="st0" d="M686.66,821.88c4.39,4.03,7.7,6.55,12.02,9.58l-3.31,3.38c-3.1-4.32-5.54-7.63-9.72-11.95
			c0.14,5.9,0.72,10.01,1.66,15.27h-4.68c0.94-5.26,1.51-9.36,1.66-15.34c-4.1,4.32-6.62,7.7-9.72,12.02l-3.31-3.38
			c4.32-3.02,7.71-5.47,12.03-9.65c-5.98,0.22-10.08,0.79-15.34,1.66v-4.75c5.26,0.94,9.36,1.51,15.27,1.73
			c-4.25-4.1-7.63-6.62-11.95-9.65l3.31-3.38c3.1,4.32,5.54,7.7,9.72,12.02c-0.14-5.98-0.72-10.15-1.66-15.34h4.68
			c-0.94,5.18-1.51,9.36-1.66,15.34c4.1-4.32,6.7-7.7,9.72-12.02l3.31,3.38c-4.32,3.02-7.7,5.54-12.02,9.65
			c5.98-0.14,10.15-0.79,15.34-1.73l0.07,4.75C696.81,822.52,692.7,822.02,686.66,821.88z"/>
	</g>
	<g>
		<path class="st0" d="M736.66,821.88c4.39,4.03,7.7,6.55,12.02,9.58l-3.31,3.38c-3.1-4.32-5.54-7.63-9.72-11.95
			c0.14,5.9,0.72,10.01,1.66,15.27h-4.68c0.94-5.26,1.51-9.36,1.66-15.34c-4.1,4.32-6.62,7.7-9.72,12.02l-3.31-3.38
			c4.32-3.02,7.71-5.47,12.03-9.65c-5.98,0.22-10.08,0.79-15.34,1.66v-4.75c5.26,0.94,9.36,1.51,15.27,1.73
			c-4.25-4.1-7.63-6.62-11.95-9.65l3.31-3.38c3.1,4.32,5.54,7.7,9.72,12.02c-0.14-5.98-0.72-10.15-1.66-15.34h4.68
			c-0.94,5.18-1.51,9.36-1.66,15.34c4.1-4.32,6.7-7.7,9.72-12.02l3.31,3.38c-4.32,3.02-7.7,5.54-12.02,9.65
			c5.98-0.14,10.15-0.79,15.34-1.73l0.07,4.75C746.81,822.52,742.7,822.02,736.66,821.88z"/>
	</g>
	<g>
		<path class="st0" d="M786.66,821.88c4.39,4.03,7.7,6.55,12.02,9.58l-3.31,3.38c-3.1-4.32-5.54-7.63-9.72-11.95
			c0.14,5.9,0.72,10.01,1.66,15.27h-4.68c0.94-5.26,1.51-9.36,1.66-15.34c-4.1,4.32-6.62,7.7-9.72,12.02l-3.31-3.38
			c4.32-3.02,7.71-5.47,12.03-9.65c-5.98,0.22-10.08,0.79-15.34,1.66v-4.75c5.26,0.94,9.36,1.51,15.27,1.73
			c-4.25-4.1-7.63-6.62-11.95-9.65l3.31-3.38c3.1,4.32,5.54,7.7,9.72,12.02c-0.14-5.98-0.72-10.15-1.66-15.34h4.68
			c-0.94,5.18-1.51,9.36-1.66,15.34c4.1-4.32,6.7-7.7,9.72-12.02l3.31,3.38c-4.32,3.02-7.7,5.54-12.02,9.65
			c5.98-0.14,10.15-0.79,15.34-1.73l0.07,4.75C796.81,822.52,792.7,822.02,786.66,821.88z"/>
	</g>
	<g>
		<path class="st0" d="M836.66,821.88c4.39,4.03,7.7,6.55,12.02,9.58l-3.31,3.38c-3.1-4.32-5.54-7.63-9.72-11.95
			c0.14,5.9,0.72,10.01,1.66,15.27h-4.68c0.94-5.26,1.51-9.36,1.66-15.34c-4.1,4.32-6.62,7.7-9.72,12.02l-3.31-3.38
			c4.32-3.02,7.71-5.47,12.03-9.65c-5.98,0.22-10.08,0.79-15.34,1.66v-4.75c5.26,0.94,9.36,1.51,15.27,1.73
			c-4.25-4.1-7.63-6.62-11.95-9.65l3.31-3.38c3.1,4.32,5.54,7.7,9.72,12.02c-0.14-5.98-0.72-10.15-1.66-15.34h4.68
			c-0.94,5.18-1.51,9.36-1.66,15.34c4.1-4.32,6.7-7.7,9.72-12.02l3.31,3.38c-4.32,3.02-7.7,5.54-12.02,9.65
			c5.98-0.14,10.15-0.79,15.34-1.73l0.07,4.75C846.81,822.52,842.7,822.02,836.66,821.88z"/>
	</g>
	<g>
		<path class="st0" d="M886.66,821.88c4.39,4.03,7.7,6.55,12.02,9.58l-3.31,3.38c-3.1-4.32-5.54-7.63-9.72-11.95
			c0.14,5.9,0.72,10.01,1.66,15.27h-4.68c0.94-5.26,1.51-9.36,1.66-15.34c-4.1,4.32-6.62,7.7-9.72,12.02l-3.31-3.38
			c4.32-3.02,7.71-5.47,12.03-9.65c-5.98,0.22-10.08,0.79-15.34,1.66v-4.75c5.26,0.94,9.36,1.51,15.27,1.73
			c-4.25-4.1-7.63-6.62-11.95-9.65l3.31-3.38c3.1,4.32,5.54,7.7,9.72,12.02c-0.14-5.98-0.72-10.15-1.66-15.34h4.68
			c-0.94,5.18-1.51,9.36-1.66,15.34c4.1-4.32,6.7-7.7,9.72-12.02l3.31,3.38c-4.32,3.02-7.7,5.54-12.02,9.65
			c5.98-0.14,10.15-0.79,15.34-1.73l0.07,4.75C896.81,822.52,892.7,822.02,886.66,821.88z"/>
	</g>
	<g>
		<path class="st0" d="M936.66,821.88c4.39,4.03,7.7,6.55,12.02,9.58l-3.31,3.38c-3.1-4.32-5.54-7.63-9.72-11.95
			c0.14,5.9,0.72,10.01,1.66,15.27h-4.68c0.94-5.26,1.51-9.36,1.66-15.34c-4.1,4.32-6.62,7.7-9.72,12.02l-3.31-3.38
			c4.32-3.02,7.71-5.47,12.03-9.65c-5.98,0.22-10.08,0.79-15.34,1.66v-4.75c5.26,0.94,9.36,1.51,15.27,1.73
			c-4.25-4.1-7.63-6.62-11.95-9.65l3.31-3.38c3.1,4.32,5.54,7.7,9.72,12.02c-0.14-5.98-0.72-10.15-1.66-15.34h4.68
			c-0.94,5.18-1.51,9.36-1.66,15.34c4.1-4.32,6.7-7.7,9.72-12.02l3.31,3.38c-4.32,3.02-7.7,5.54-12.02,9.65
			c5.98-0.14,10.15-0.79,15.34-1.73l0.07,4.75C946.81,822.52,942.7,822.02,936.66,821.88z"/>
	</g>
	<g>
		<path class="st0" d="M986.66,821.88c4.39,4.03,7.7,6.55,12.02,9.58l-3.31,3.38c-3.1-4.32-5.54-7.63-9.72-11.95
			c0.14,5.9,0.72,10.01,1.66,15.27h-4.68c0.94-5.26,1.51-9.36,1.66-15.34c-4.1,4.32-6.62,7.7-9.72,12.02l-3.31-3.38
			c4.32-3.02,7.71-5.47,12.03-9.65c-5.98,0.22-10.08,0.79-15.34,1.66v-4.75c5.26,0.94,9.36,1.51,15.27,1.73
			c-4.25-4.1-7.63-6.62-11.95-9.65l3.31-3.38c3.1,4.32,5.54,7.7,9.72,12.02c-0.14-5.98-0.72-10.15-1.66-15.34h4.68
			c-0.94,5.18-1.51,9.36-1.66,15.34c4.1-4.32,6.7-7.7,9.72-12.02l3.31,3.38c-4.32,3.02-7.7,5.54-12.02,9.65
			c5.98-0.14,10.15-0.79,15.34-1.73l0.07,4.75C996.81,822.52,992.7,822.02,986.66,821.88z"/>
	</g>
	<g>
		<path class="st0" d="M1036.66,821.88c4.39,4.03,7.7,6.55,12.02,9.58l-3.31,3.38c-3.1-4.32-5.54-7.63-9.72-11.95
			c0.14,5.9,0.72,10.01,1.66,15.27h-4.68c0.94-5.26,1.51-9.36,1.66-15.34c-4.1,4.32-6.62,7.7-9.72,12.02l-3.31-3.38
			c4.32-3.02,7.71-5.47,12.03-9.65c-5.98,0.22-10.08,0.79-15.34,1.66v-4.75c5.26,0.94,9.36,1.51,15.27,1.73
			c-4.25-4.1-7.63-6.62-11.95-9.65l3.31-3.38c3.1,4.32,5.54,7.7,9.72,12.02c-0.14-5.98-0.72-10.15-1.66-15.34h4.68
			c-0.94,5.18-1.51,9.36-1.66,15.34c4.1-4.32,6.7-7.7,9.72-12.02l3.31,3.38c-4.32,3.02-7.7,5.54-12.02,9.65
			c5.98-0.14,10.15-0.79,15.34-1.73l0.07,4.75C1046.81,822.52,1042.7,822.02,1036.66,821.88z"/>
	</g>
	<g>
		<path class="st0" d="M1086.66,821.88c4.39,4.03,7.7,6.55,12.02,9.58l-3.31,3.38c-3.1-4.32-5.54-7.63-9.72-11.95
			c0.14,5.9,0.72,10.01,1.66,15.27h-4.68c0.94-5.26,1.51-9.36,1.66-15.34c-4.1,4.32-6.62,7.7-9.72,12.02l-3.31-3.38
			c4.32-3.02,7.71-5.47,12.03-9.65c-5.98,0.22-10.08,0.79-15.34,1.66v-4.75c5.26,0.94,9.36,1.51,15.27,1.73
			c-4.25-4.1-7.63-6.62-11.95-9.65l3.31-3.38c3.1,4.32,5.54,7.7,9.72,12.02c-0.14-5.98-0.72-10.15-1.66-15.34h4.68
			c-0.94,5.18-1.51,9.36-1.66,15.34c4.1-4.32,6.7-7.7,9.72-12.02l3.31,3.38c-4.32,3.02-7.7,5.54-12.02,9.65
			c5.98-0.14,10.15-0.79,15.34-1.73l0.07,4.75C1096.81,822.52,1092.7,822.02,1086.66,821.88z"/>
	</g>
	<g>
		<path class="st0" d="M1136.66,821.88c4.39,4.03,7.7,6.55,12.02,9.58l-3.31,3.38c-3.1-4.32-5.54-7.63-9.72-11.95
			c0.14,5.9,0.72,10.01,1.66,15.27h-4.68c0.94-5.26,1.51-9.36,1.66-15.34c-4.1,4.32-6.62,7.7-9.72,12.02l-3.31-3.38
			c4.32-3.02,7.71-5.47,12.03-9.65c-5.98,0.22-10.08,0.79-15.34,1.66v-4.75c5.26,0.94,9.36,1.51,15.27,1.73
			c-4.25-4.1-7.63-6.62-11.95-9.65l3.31-3.38c3.1,4.32,5.54,7.7,9.72,12.02c-0.14-5.98-0.72-10.15-1.66-15.34h4.68
			c-0.94,5.18-1.51,9.36-1.66,15.34c4.1-4.32,6.7-7.7,9.72-12.02l3.31,3.38c-4.32,3.02-7.7,5.54-12.02,9.65
			c5.98-0.14,10.15-0.79,15.34-1.73l0.07,4.75C1146.81,822.52,1142.7,822.02,1136.66,821.88z"/>
	</g>
	<g>
		<path class="st0" d="M1186.66,821.88c4.39,4.03,7.7,6.55,12.02,9.58l-3.31,3.38c-3.1-4.32-5.54-7.63-9.72-11.95
			c0.14,5.9,0.72,10.01,1.66,15.27h-4.68c0.94-5.26,1.51-9.36,1.66-15.34c-4.1,4.32-6.62,7.7-9.72,12.02l-3.31-3.38
			c4.32-3.02,7.71-5.47,12.03-9.65c-5.98,0.22-10.08,0.79-15.34,1.66v-4.75c5.26,0.94,9.36,1.51,15.27,1.73
			c-4.25-4.1-7.63-6.62-11.95-9.65l3.31-3.38c3.1,4.32,5.54,7.7,9.72,12.02c-0.14-5.98-0.72-10.15-1.66-15.34h4.68
			c-0.94,5.18-1.51,9.36-1.66,15.34c4.1-4.32,6.7-7.7,9.72-12.02l3.31,3.38c-4.32,3.02-7.7,5.54-12.02,9.65
			c5.98-0.14,10.15-0.79,15.34-1.73l0.07,4.75C1196.81,822.52,1192.7,822.02,1186.66,821.88z"/>
	</g>
	<g>
		<path class="st0" d="M1236.66,821.88c4.39,4.03,7.7,6.55,12.02,9.58l-3.31,3.38c-3.1-4.32-5.54-7.63-9.72-11.95
			c0.14,5.9,0.72,10.01,1.66,15.27h-4.68c0.94-5.26,1.51-9.36,1.66-15.34c-4.1,4.32-6.62,7.7-9.72,12.02l-3.31-3.38
			c4.32-3.02,7.71-5.47,12.03-9.65c-5.98,0.22-10.08,0.79-15.34,1.66v-4.75c5.26,0.94,9.36,1.51,15.27,1.73
			c-4.25-4.1-7.63-6.62-11.95-9.65l3.31-3.38c3.1,4.32,5.54,7.7,9.72,12.02c-0.14-5.98-0.72-10.15-1.66-15.34h4.68
			c-0.94,5.18-1.51,9.36-1.66,15.34c4.1-4.32,6.7-7.7,9.72-12.02l3.31,3.38c-4.32,3.02-7.7,5.54-12.02,9.65
			c5.98-0.14,10.15-0.79,15.34-1.73l0.07,4.75C1246.81,822.52,1242.7,822.02,1236.66,821.88z"/>
	</g>
	<g>
		<path class="st0" d="M1286.66,821.88c4.39,4.03,7.7,6.55,12.02,9.58l-3.31,3.38c-3.1-4.32-5.54-7.63-9.72-11.95
			c0.14,5.9,0.72,10.01,1.66,15.27h-4.68c0.94-5.26,1.51-9.36,1.66-15.34c-4.1,4.32-6.62,7.7-9.72,12.02l-3.31-3.38
			c4.32-3.02,7.71-5.47,12.03-9.65c-5.98,0.22-10.08,0.79-15.34,1.66v-4.75c5.26,0.94,9.36,1.51,15.27,1.73
			c-4.25-4.1-7.63-6.62-11.95-9.65l3.31-3.38c3.1,4.32,5.54,7.7,9.72,12.02c-0.14-5.98-0.72-10.15-1.66-15.34h4.68
			c-0.94,5.18-1.51,9.36-1.66,15.34c4.1-4.32,6.7-7.7,9.72-12.02l3.31,3.38c-4.32,3.02-7.7,5.54-12.02,9.65
			c5.98-0.14,10.15-0.79,15.34-1.73l0.07,4.75C1296.81,822.52,1292.7,822.02,1286.66,821.88z"/>
	</g>
	<g>
		<path class="st0" d="M1336.66,821.88c4.39,4.03,7.7,6.55,12.02,9.58l-3.31,3.38c-3.1-4.32-5.54-7.63-9.72-11.95
			c0.14,5.9,0.72,10.01,1.66,15.27h-4.68c0.94-5.26,1.51-9.36,1.66-15.34c-4.1,4.32-6.62,7.7-9.72,12.02l-3.31-3.38
			c4.32-3.02,7.71-5.47,12.03-9.65c-5.98,0.22-10.08,0.79-15.34,1.66v-4.75c5.26,0.94,9.36,1.51,15.27,1.73
			c-4.25-4.1-7.63-6.62-11.95-9.65l3.31-3.38c3.1,4.32,5.54,7.7,9.72,12.02c-0.14-5.98-0.72-10.15-1.66-15.34h4.68
			c-0.94,5.18-1.51,9.36-1.66,15.34c4.1-4.32,6.7-7.7,9.72-12.02l3.31,3.38c-4.32,3.02-7.7,5.54-12.02,9.65
			c5.98-0.14,10.15-0.79,15.34-1.73l0.07,4.75C1346.81,822.52,1342.7,822.02,1336.66,821.88z"/>
	</g>
	<g>
		<path class="st0" d="M1386.66,821.88c4.39,4.03,7.7,6.55,12.02,9.58l-3.31,3.38c-3.1-4.32-5.54-7.63-9.72-11.95
			c0.14,5.9,0.72,10.01,1.66,15.27h-4.68c0.94-5.26,1.51-9.36,1.66-15.34c-4.1,4.32-6.62,7.7-9.72,12.02l-3.31-3.38
			c4.32-3.02,7.71-5.47,12.03-9.65c-5.98,0.22-10.08,0.79-15.34,1.66v-4.75c5.26,0.94,9.36,1.51,15.27,1.73
			c-4.25-4.1-7.63-6.62-11.95-9.65l3.31-3.38c3.1,4.32,5.54,7.7,9.72,12.02c-0.14-5.98-0.72-10.15-1.66-15.34h4.68
			c-0.94,5.18-1.51,9.36-1.66,15.34c4.1-4.32,6.7-7.7,9.72-12.02l3.31,3.38c-4.32,3.02-7.7,5.54-12.02,9.65
			c5.98-0.14,10.15-0.79,15.34-1.73l0.07,4.75C1396.81,822.52,1392.7,822.02,1386.66,821.88z"/>
	</g>
	<g>
		<path class="st0" d="M1436.66,821.88c4.39,4.03,7.7,6.55,12.02,9.58l-3.31,3.38c-3.1-4.32-5.54-7.63-9.72-11.95
			c0.14,5.9,0.72,10.01,1.66,15.27h-4.68c0.94-5.26,1.51-9.36,1.66-15.34c-4.1,4.32-6.62,7.7-9.72,12.02l-3.31-3.38
			c4.32-3.02,7.71-5.47,12.03-9.65c-5.98,0.22-10.08,0.79-15.34,1.66v-4.75c5.26,0.94,9.36,1.51,15.27,1.73
			c-4.25-4.1-7.63-6.62-11.95-9.65l3.31-3.38c3.1,4.32,5.54,7.7,9.72,12.02c-0.14-5.98-0.72-10.15-1.66-15.34h4.68
			c-0.94,5.18-1.51,9.36-1.66,15.34c4.1-4.32,6.7-7.7,9.72-12.02l3.31,3.38c-4.32,3.02-7.7,5.54-12.02,9.65
			c5.98-0.14,10.15-0.79,15.34-1.73l0.07,4.75C1446.81,822.52,1442.7,822.02,1436.66,821.88z"/>
	</g>
	<g>
		<path class="st0" d="M1486.66,821.88c4.39,4.03,7.7,6.55,12.02,9.58l-3.31,3.38c-3.1-4.32-5.54-7.63-9.72-11.95
			c0.14,5.9,0.72,10.01,1.66,15.27h-4.68c0.94-5.26,1.51-9.36,1.66-15.34c-4.1,4.32-6.62,7.7-9.72,12.02l-3.31-3.38
			c4.32-3.02,7.71-5.47,12.03-9.65c-5.98,0.22-10.08,0.79-15.34,1.66v-4.75c5.26,0.94,9.36,1.51,15.27,1.73
			c-4.25-4.1-7.63-6.62-11.95-9.65l3.31-3.38c3.1,4.32,5.54,7.7,9.72,12.02c-0.14-5.98-0.72-10.15-1.66-15.34h4.68
			c-0.94,5.18-1.51,9.36-1.66,15.34c4.1-4.32,6.7-7.7,9.72-12.02l3.31,3.38c-4.32,3.02-7.7,5.54-12.02,9.65
			c5.98-0.14,10.15-0.79,15.34-1.73l0.07,4.75C1496.81,822.52,1492.7,822.02,1486.66,821.88z"/>
	</g>
	<g>
		<path class="st0" d="M1536.66,821.88c4.39,4.03,7.7,6.55,12.02,9.58l-3.31,3.38c-3.1-4.32-5.54-7.63-9.72-11.95
			c0.14,5.9,0.72,10.01,1.66,15.27h-4.68c0.94-5.26,1.51-9.36,1.66-15.34c-4.1,4.32-6.62,7.7-9.72,12.02l-3.31-3.38
			c4.32-3.02,7.71-5.47,12.03-9.65c-5.98,0.22-10.08,0.79-15.34,1.66v-4.75c5.26,0.94,9.36,1.51,15.27,1.73
			c-4.25-4.1-7.63-6.62-11.95-9.65l3.31-3.38c3.1,4.32,5.54,7.7,9.72,12.02c-0.14-5.98-0.72-10.15-1.66-15.34h4.68
			c-0.94,5.18-1.51,9.36-1.66,15.34c4.1-4.32,6.7-7.7,9.72-12.02l3.31,3.38c-4.32,3.02-7.7,5.54-12.02,9.65
			c5.98-0.14,10.15-0.79,15.34-1.73l0.07,4.75C1546.81,822.52,1542.7,822.02,1536.66,821.88z"/>
	</g>
	<g>
		<path class="st0" d="M336.66,771.88c4.39,4.03,7.7,6.55,12.02,9.58l-3.31,3.38c-3.1-4.32-5.54-7.63-9.72-11.95
			c0.14,5.9,0.72,10.01,1.66,15.27h-4.68c0.94-5.26,1.51-9.36,1.66-15.34c-4.1,4.32-6.62,7.7-9.72,12.02l-3.31-3.38
			c4.32-3.02,7.71-5.47,12.03-9.65c-5.98,0.22-10.08,0.79-15.34,1.66v-4.75c5.26,0.94,9.36,1.51,15.27,1.73
			c-4.25-4.1-7.63-6.62-11.95-9.65l3.31-3.38c3.1,4.32,5.54,7.7,9.72,12.02c-0.14-5.98-0.72-10.15-1.66-15.34h4.68
			c-0.94,5.18-1.51,9.36-1.66,15.34c4.1-4.32,6.7-7.7,9.72-12.02l3.31,3.38c-4.32,3.02-7.7,5.54-12.02,9.65
			c5.98-0.14,10.15-0.79,15.34-1.73l0.07,4.75C346.81,772.52,342.7,772.02,336.66,771.88z"/>
	</g>
	<g>
		<path class="st0" d="M336.66,721.88c4.39,4.03,7.7,6.55,12.02,9.58l-3.31,3.38c-3.1-4.32-5.54-7.63-9.72-11.95
			c0.14,5.9,0.72,10.01,1.66,15.27h-4.68c0.94-5.26,1.51-9.36,1.66-15.34c-4.1,4.32-6.62,7.7-9.72,12.02l-3.31-3.38
			c4.32-3.02,7.71-5.47,12.03-9.65c-5.98,0.22-10.08,0.79-15.34,1.66v-4.75c5.26,0.94,9.36,1.51,15.27,1.73
			c-4.25-4.1-7.63-6.62-11.95-9.65l3.31-3.38c3.1,4.32,5.54,7.7,9.72,12.02c-0.14-5.98-0.72-10.15-1.66-15.34h4.68
			c-0.94,5.18-1.51,9.36-1.66,15.34c4.1-4.32,6.7-7.7,9.72-12.02l3.31,3.38c-4.32,3.02-7.7,5.54-12.02,9.65
			c5.98-0.14,10.15-0.79,15.34-1.73l0.07,4.75C346.81,722.52,342.7,722.02,336.66,721.88z"/>
	</g>
	<g>
		<path class="st0" d="M336.66,671.88c4.39,4.03,7.7,6.55,12.02,9.58l-3.31,3.38c-3.1-4.32-5.54-7.63-9.72-11.95
			c0.14,5.9,0.72,10.01,1.66,15.27h-4.68c0.94-5.26,1.51-9.36,1.66-15.34c-4.1,4.32-6.62,7.7-9.72,12.02l-3.31-3.38
			c4.32-3.02,7.71-5.47,12.03-9.65c-5.98,0.22-10.08,0.79-15.34,1.66v-4.75c5.26,0.94,9.36,1.51,15.27,1.73
			c-4.25-4.1-7.63-6.62-11.95-9.65l3.31-3.38c3.1,4.32,5.54,7.7,9.72,12.02c-0.14-5.98-0.72-10.15-1.66-15.34h4.68
			c-0.94,5.18-1.51,9.36-1.66,15.34c4.1-4.32,6.7-7.7,9.72-12.02l3.31,3.38c-4.32,3.02-7.7,5.54-12.02,9.65
			c5.98-0.14,10.15-0.79,15.34-1.73l0.07,4.75C346.81,672.52,342.7,672.02,336.66,671.88z"/>
	</g>
	<g>
		<path class="st0" d="M336.66,621.88c4.39,4.03,7.7,6.55,12.02,9.58l-3.31,3.38c-3.1-4.32-5.54-7.63-9.72-11.95
			c0.14,5.9,0.72,10.01,1.66,15.27h-4.68c0.94-5.26,1.51-9.36,1.66-15.34c-4.1,4.32-6.62,7.7-9.72,12.02l-3.31-3.38
			c4.32-3.02,7.71-5.47,12.03-9.65c-5.98,0.22-10.08,0.79-15.34,1.66v-4.75c5.26,0.94,9.36,1.51,15.27,1.73
			c-4.25-4.1-7.63-6.62-11.95-9.65l3.31-3.38c3.1,4.32,5.54,7.7,9.72,12.02c-0.14-5.98-0.72-10.15-1.66-15.34h4.68
			c-0.94,5.18-1.51,9.36-1.66,15.34c4.1-4.32,6.7-7.7,9.72-12.02l3.31,3.38c-4.32,3.02-7.7,5.54-12.02,9.65
			c5.98-0.14,10.15-0.79,15.34-1.73l0.07,4.75C346.81,622.52,342.7,622.02,336.66,621.88z"/>
	</g>
	<g>
		<path class="st0" d="M336.66,571.88c4.39,4.03,7.7,6.55,12.02,9.58l-3.31,3.38c-3.1-4.32-5.54-7.63-9.72-11.95
			c0.14,5.9,0.72,10.01,1.66,15.27h-4.68c0.94-5.26,1.51-9.36,1.66-15.34c-4.1,4.32-6.62,7.7-9.72,12.02l-3.31-3.38
			c4.32-3.02,7.71-5.47,12.03-9.65c-5.98,0.22-10.08,0.79-15.34,1.66v-4.75c5.26,0.94,9.36,1.51,15.27,1.73
			c-4.25-4.1-7.63-6.62-11.95-9.65l3.31-3.38c3.1,4.32,5.54,7.7,9.72,12.02c-0.14-5.98-0.72-10.15-1.66-15.34h4.68
			c-0.94,5.18-1.51,9.36-1.66,15.34c4.1-4.32,6.7-7.7,9.72-12.02l3.31,3.38c-4.32,3.02-7.7,5.54-12.02,9.65
			c5.98-0.14,10.15-0.79,15.34-1.73l0.07,4.75C346.81,572.52,342.7,572.02,336.66,571.88z"/>
	</g>
	<g>
		<path class="st0" d="M336.66,521.88c4.39,4.03,7.7,6.55,12.02,9.58l-3.31,3.38c-3.1-4.32-5.54-7.63-9.72-11.95
			c0.14,5.9,0.72,10.01,1.66,15.27h-4.68c0.94-5.26,1.51-9.36,1.66-15.34c-4.1,4.32-6.62,7.7-9.72,12.02l-3.31-3.38
			c4.32-3.02,7.71-5.47,12.03-9.65c-5.98,0.22-10.08,0.79-15.34,1.66v-4.75c5.26,0.94,9.36,1.51,15.27,1.73
			c-4.25-4.1-7.63-6.62-11.95-9.65l3.31-3.38c3.1,4.32,5.54,7.7,9.72,12.02c-0.14-5.98-0.72-10.15-1.66-15.34h4.68
			c-0.94,5.18-1.51,9.36-1.66,15.34c4.1-4.32,6.7-7.7,9.72-12.02l3.31,3.38c-4.32,3.02-7.7,5.54-12.02,9.65
			c5.98-0.14,10.15-0.79,15.34-1.73l0.07,4.75C346.81,522.52,342.7,522.02,336.66,521.88z"/>
	</g>
	<g>
		<path class="st0" d="M336.66,471.88c4.39,4.03,7.7,6.55,12.02,9.58l-3.31,3.38c-3.1-4.32-5.54-7.63-9.72-11.95
			c0.14,5.9,0.72,10.01,1.66,15.27h-4.68c0.94-5.26,1.51-9.36,1.66-15.34c-4.1,4.32-6.62,7.7-9.72,12.02l-3.31-3.38
			c4.32-3.02,7.71-5.47,12.03-9.65c-5.98,0.22-10.08,0.79-15.34,1.66v-4.75c5.26,0.94,9.36,1.51,15.27,1.73
			c-4.25-4.1-7.63-6.62-11.95-9.65l3.31-3.38c3.1,4.32,5.54,7.7,9.72,12.02c-0.14-5.98-0.72-10.15-1.66-15.34h4.68
			c-0.94,5.18-1.51,9.36-1.66,15.34c4.1-4.32,6.7-7.7,9.72-12.02l3.31,3.38c-4.32,3.02-7.7,5.54-12.02,9.65
			c5.98-0.14,10.15-0.79,15.34-1.73l0.07,4.75C346.81,472.52,342.7,472.02,336.66,471.88z"/>
	</g>
	<g>
		<path class="st0" d="M336.66,421.88c4.39,4.03,7.7,6.55,12.02,9.58l-3.31,3.38c-3.1-4.32-5.54-7.63-9.72-11.95
			c0.14,5.9,0.72,10.01,1.66,15.27h-4.68c0.94-5.26,1.51-9.36,1.66-15.34c-4.1,4.32-6.62,7.7-9.72,12.02l-3.31-3.38
			c4.32-3.02,7.71-5.47,12.03-9.65c-5.98,0.22-10.08,0.79-15.34,1.66v-4.75c5.26,0.94,9.36,1.51,15.27,1.73
			c-4.25-4.1-7.63-6.62-11.95-9.65l3.31-3.38c3.1,4.32,5.54,7.7,9.72,12.02c-0.14-5.98-0.72-10.15-1.66-15.34h4.68
			c-0.94,5.18-1.51,9.36-1.66,15.34c4.1-4.32,6.7-7.7,9.72-12.02l3.31,3.38c-4.32,3.02-7.7,5.54-12.02,9.65
			c5.98-0.14,10.15-0.79,15.34-1.73l0.07,4.75C346.81,422.52,342.7,422.02,336.66,421.88z"/>
	</g>
	<g>
		<path class="st0" d="M336.66,371.88c4.39,4.03,7.7,6.55,12.02,9.58l-3.31,3.38c-3.1-4.32-5.54-7.63-9.72-11.95
			c0.14,5.9,0.72,10.01,1.66,15.27h-4.68c0.94-5.26,1.51-9.36,1.66-15.34c-4.1,4.32-6.62,7.7-9.72,12.02l-3.31-3.38
			c4.32-3.02,7.71-5.47,12.03-9.65c-5.98,0.22-10.08,0.79-15.34,1.66v-4.75c5.26,0.94,9.36,1.51,15.27,1.73
			c-4.25-4.1-7.63-6.62-11.95-9.65l3.31-3.38c3.1,4.32,5.54,7.7,9.72,12.02c-0.14-5.98-0.72-10.15-1.66-15.34h4.68
			c-0.94,5.18-1.51,9.36-1.66,15.34c4.1-4.32,6.7-7.7,9.72-12.02l3.31,3.38c-4.32,3.02-7.7,5.54-12.02,9.65
			c5.98-0.14,10.15-0.79,15.34-1.73l0.07,4.75C346.81,372.52,342.7,372.02,336.66,371.88z"/>
	</g>
	<g>
		<path class="st0" d="M336.66,321.88c4.39,4.03,7.7,6.55,12.02,9.58l-3.31,3.38c-3.1-4.32-5.54-7.63-9.72-11.95
			c0.14,5.9,0.72,10.01,1.66,15.27h-4.68c0.94-5.26,1.51-9.36,1.66-15.34c-4.1,4.32-6.62,7.7-9.72,12.02l-3.31-3.38
			c4.32-3.02,7.71-5.47,12.03-9.65c-5.98,0.22-10.08,0.79-15.34,1.66v-4.75c5.26,0.94,9.36,1.51,15.27,1.73
			c-4.25-4.1-7.63-6.62-11.95-9.65l3.31-3.38c3.1,4.32,5.54,7.7,9.72,12.02c-0.14-5.98-0.72-10.15-1.66-15.34h4.68
			c-0.94,5.18-1.51,9.36-1.66,15.34c4.1-4.32,6.7-7.7,9.72-12.02l3.31,3.38c-4.32,3.02-7.7,5.54-12.02,9.65
			c5.98-0.14,10.15-0.79,15.34-1.73l0.07,4.75C346.81,322.52,342.7,322.02,336.66,321.88z"/>
	</g>
	<g>
		<path class="st0" d="M336.66,271.88c4.39,4.03,7.7,6.55,12.02,9.58l-3.31,3.38c-3.1-4.32-5.54-7.63-9.72-11.95
			c0.14,5.9,0.72,10.01,1.66,15.27h-4.68c0.94-5.26,1.51-9.36,1.66-15.34c-4.1,4.32-6.62,7.7-9.72,12.02l-3.31-3.38
			c4.32-3.02,7.71-5.47,12.03-9.65c-5.98,0.22-10.08,0.79-15.34,1.66v-4.75c5.26,0.94,9.36,1.51,15.27,1.73
			c-4.25-4.1-7.63-6.62-11.95-9.65l3.31-3.38c3.1,4.32,5.54,7.7,9.72,12.02c-0.14-5.98-0.72-10.15-1.66-15.34h4.68
			c-0.94,5.18-1.51,9.36-1.66,15.34c4.1-4.32,6.7-7.7,9.72-12.02l3.31,3.38c-4.32,3.02-7.7,5.54-12.02,9.65
			c5.98-0.14,10.15-0.79,15.34-1.73l0.07,4.75C346.81,272.52,342.7,272.02,336.66,271.88z"/>
	</g>
	<g>
		<path class="st0" d="M336.66,221.88c4.39,4.03,7.7,6.55,12.02,9.58l-3.31,3.38c-3.1-4.32-5.54-7.63-9.72-11.95
			c0.14,5.9,0.72,10.01,1.66,15.27h-4.68c0.94-5.26,1.51-9.36,1.66-15.34c-4.1,4.32-6.62,7.7-9.72,12.02l-3.31-3.38
			c4.32-3.02,7.71-5.47,12.03-9.65c-5.98,0.22-10.08,0.79-15.34,1.66v-4.75c5.26,0.94,9.36,1.51,15.27,1.73
			c-4.25-4.1-7.63-6.62-11.95-9.65l3.31-3.38c3.1,4.32,5.54,7.7,9.72,12.02c-0.14-5.98-0.72-10.15-1.66-15.34h4.68
			c-0.94,5.18-1.51,9.36-1.66,15.34c4.1-4.32,6.7-7.7,9.72-12.02l3.31,3.38c-4.32,3.02-7.7,5.54-12.02,9.65
			c5.98-0.14,10.15-0.79,15.34-1.73l0.07,4.75C346.81,222.52,342.7,222.02,336.66,221.88z"/>
	</g>
</g>
<g>
	<path class="st0" d="M498.65,431.7c-2.3,15.48-5.62,45.72-6.77,57.46c24.77-34.35,33.63-46.8,42.84-60.7
		c4.61-6.84,8.06-12.38,10.01-15.62c1.3-2.45,4.18,0.07,2.52,1.94c-2.81,3.1-6.84,8.06-11.38,14.33
		c-15.91,22.47-31.18,43.56-47.16,66.46c-0.5,0.72-3.53,0.65-3.31-0.58c1.44-8.42,5.62-41.26,6.77-54.44
		c-12.75,18.15-25.42,36.44-37.73,54.87c-0.5,0.72-2.95-0.29-2.74-1.3c2.3-11.38,8.93-43.42,10.08-51.41
		c0.86-5.4,1.08-9.36,0.29-10.8c-0.65-1.37-1.44-1.66-3.17-1.66c-6.05-0.22-15.48,2.88-18.36,2.52c-1.22-0.14,1.37-3.6,2.52-4.18
		c0.94-0.58,7.99-0.29,13.11-0.29h33.48c13.9,0,22.68-0.72,26.07-0.72c0.5,0,1.66,0,2.3,0.29c0,1.01-1.3,3.31-3.1,4.46
		C513.41,432.7,507.65,432.27,498.65,431.7z M497.43,431.62c-8.35-0.5-18.87-1.01-31.47-1.08c0.72,0.58,1.15,1.3,1.37,2.09
		c0.29,1.37,0.5,4.82-0.36,9.72c-1.15,7.49-5.98,32.47-8.57,45.44C480.51,455.67,490.16,441.78,497.43,431.62z"/>
	<path class="st0" d="M526.8,476.84c-0.07,1.15-0.07,2.23,0,3.31c0.79,2.81,2.23,4.25,4.18,4.75c2.3,0.65,5.98-0.22,8.64-1.44
		c1.94-0.79,6.55-4.46,8.86-7.27l0.65,0.36c-2.95,3.53-7.34,6.84-11.16,8.93c-2.52,1.37-5.83,3.1-9.29,3.1
		c-2.88,0-6.12-2.52-7.27-5.69c-0.79-2.88-1.58-7.7,3.6-16.35c2.74-4.9,8.5-10.08,13.32-12.82c2.81-1.51,6.05-2.59,8.93-2.59
		c3.24,0,6.05,1.08,6.41,3.38C554.45,459.2,547.18,465.11,526.8,476.84z M539.69,453.66c-4.18,2.81-11.67,13.03-12.82,22.47
		c14.26-8.5,19.95-12.03,21.1-15.55C549.7,456.11,544.01,452.29,539.69,453.66z"/>
	<path class="st0" d="M574.39,484.91c4.32-5.76,13.61-20.59,13.32-26.5c-0.07-1.22-0.79-2.52-2.3-3.02
		c-2.02,0.5-5.62,2.74-8.42,5.83l-0.5-0.5c2.74-2.52,7.27-6.48,11.67-9c3.38-1.87,5.04,4.25,5.26,6.62
		c0.22,3.74-3.38,10.15-6.12,14.83c8.28-10.58,20.81-20.45,25.78-21.96c4.54,1.01,4.32,6.19-3.17,18.79c-2.66,4.54-5.62,9-5.4,11.67
		c0.07,1.22,0.65,2.38,2.09,2.88c2.3-0.79,6.05-3.46,8.71-6.12l0.43,0.5c-2.66,2.59-6.55,6.19-11.16,9
		c-0.79,0.5-2.88,0.22-3.24-0.07c-1.73-1.37-2.74-4.25-2.74-5.69c-0.22-2.95,4.03-8.86,6.48-13.25c5.98-10.37,5.9-12.46,4.1-14.04
		c-4.25,1.37-15.41,10.08-23.69,22.03c-2.52,3.67-5.18,8.42-6.77,10.94C577.27,487.86,572.88,488.94,574.39,484.91z"/>
	<path class="st0" d="M627.31,476.84c-0.07,1.15-0.07,2.23,0,3.31c0.79,2.81,2.23,4.25,4.18,4.75c2.3,0.65,5.98-0.22,8.64-1.44
		c1.94-0.79,6.55-4.46,8.86-7.27l0.65,0.36c-2.95,3.53-7.34,6.84-11.16,8.93c-2.52,1.37-5.83,3.1-9.29,3.1
		c-2.88,0-6.12-2.52-7.27-5.69c-0.79-2.88-1.58-7.7,3.6-16.35c2.74-4.9,8.5-10.08,13.32-12.82c2.81-1.51,6.05-2.59,8.93-2.59
		c3.24,0,6.05,1.08,6.41,3.38C654.96,459.2,647.69,465.11,627.31,476.84z M640.2,453.66c-4.18,2.81-11.67,13.03-12.82,22.47
		c14.26-8.5,19.95-12.03,21.1-15.55C650.21,456.11,644.52,452.29,640.2,453.66z"/>
	<path class="st0" d="M669.21,484.84c3.74-3.1,10.44-9.07,15.41-14.04c4.61-4.61,6.12-8.28,6.12-11.45c0-2.02-1.01-4.25-2.74-4.75
		c-1.8,0.5-5.11,2.52-7.92,4.82l-0.29-0.29c2.81-2.81,7.92-6.05,11.3-7.78c1.94-0.94,4.82,2.45,4.61,5.54
		c-0.22,3.96-6.34,10.3-10.58,14.33c-5.18,4.97-11.59,10.8-18.79,16.78c-0.5,0.5-1.08,0.5-1.58,0.5c-0.79,0-3.46-0.94-3.46-2.74
		c1.37-6.48,3.96-19.51,3.96-24.19c-0.07-4.61-1.73-6.41-3.1-6.48c-1.37,0.36-4.9,2.52-7.2,4.61l-0.36-0.29
		c2.52-2.52,6.91-5.83,10.3-7.7c3.38-1.8,5.69,1.44,5.98,8.14c0.22,3.38-1.94,15.34-3.67,23.04c0.07,0.58,0.58,1.94,1.94,1.94
		H669.21z"/>
	<path class="st0" d="M703.49,476.84c-0.07,1.15-0.07,2.23,0,3.31c0.79,2.81,2.23,4.25,4.18,4.75c2.3,0.65,5.98-0.22,8.64-1.44
		c1.94-0.79,6.55-4.46,8.86-7.27l0.65,0.36c-2.95,3.53-7.34,6.84-11.16,8.93c-2.52,1.37-5.83,3.1-9.29,3.1
		c-2.88,0-6.12-2.52-7.27-5.69c-0.79-2.88-1.58-7.7,3.6-16.35c2.74-4.9,8.5-10.08,13.32-12.82c2.81-1.51,6.05-2.59,8.93-2.59
		c3.24,0,6.05,1.08,6.41,3.38C731.14,459.2,723.86,465.11,703.49,476.84z M716.37,453.66c-4.18,2.81-11.67,13.03-12.82,22.47
		c14.26-8.5,19.95-12.03,21.1-15.55C726.38,456.11,720.69,452.29,716.37,453.66z"/>
	<path class="st0" d="M730.2,484.91c4.32-5.76,13.61-20.59,13.32-26.5c-0.07-1.22-0.79-2.52-2.3-3.02c-2.02,0.5-5.62,2.74-8.42,5.83
		l-0.5-0.5c2.74-2.52,7.27-6.48,11.67-9c3.38-1.87,5.04,4.25,5.26,6.62c0.22,1.94-0.72,4.39-1.94,7.06
		c5.76-7.49,10.58-12.96,15.34-13.9c2.45-0.22,7.34-0.07,7.49,0.43c-0.22,1.44-3.17,5.11-4.54,5.33c-2.02-0.07-4.54-0.94-8.21-0.86
		c-6.34,1.94-11.45,13.39-22.83,31.47C733.08,487.86,728.68,488.94,730.2,484.91z"/>
	<path class="st0" d="M813.14,459.27c-2.95-5.83-6.48-8.21-10.73-7.13c-3.67,2.09-2.81,6.05,1.58,15.41
		c3.74,8.14,3.82,14.83-1.87,18.36c-3.1,1.94-5.98,2.81-9.79,2.81c-3.1,0.07-6.26-1.15-7.71-3.53c-1.58-2.59-0.14-7.34,4.03-8.5
		l0.29,0.22c-0.22,2.95,1.01,5.76,3.1,7.56c2.52,2.23,5.33,2.81,8.35,1.58c4.39-2.02,1.73-7.34-1.94-16.56
		c-4.03-9.72-3.24-14.83,2.02-17.21c2.38-1.08,5.11-2.02,8.21-1.94c3.38,0,6.12,0.65,7.2,2.95c0.94,2.09-0.5,4.61-2.45,5.98H813.14z
		"/>
	<path class="st0" d="M843.09,467.77c-6.34,6.7-15.12,14.98-21.1,20.16c-0.65,0.5-2.52,0.29-2.88,0
		c-3.38-2.66-3.38-11.09-0.43-18.07c4.61-11.45,17.79-18.58,24.05-18.58c3.53,0,5.54,0.65,9.79,5.26c1.08-0.86,3.38-3.17,5.04-4.9
		c0.29-0.29,0.5-0.36,0.58-0.22c0.07,0.07,0.07,0.22,0.07,0.36c-4.68,5.9-16.42,23.62-16.13,29.67c0.07,1.22,1.15,2.52,2.59,3.02
		c1.8-0.79,5.83-3.31,8.64-6.34l0.43,0.5c-2.66,2.59-6.77,6.48-11.38,9.29c-0.65,0.36-3.82,0.36-4.03-0.07
		c-1.51-1.73-2.23-4.32-2.3-5.76C835.68,477.64,840.64,471.73,843.09,467.77z M848.64,460.35c-4.54-5.9-7.27-7.34-10.08-7.34
		c-5.04,0-11.67,7.13-14.54,15.91c-2.3,7.13-2.3,13.18-0.36,15.41C827.18,483.33,840.57,470,848.64,460.35z"/>
	<path class="st0" d="M869.16,470.36c-2.81,4.54-6.05,9-5.83,11.67c0.07,1.22,1.66,2.16,3.1,2.66c2.3-0.79,5.98-3.6,8.64-6.26
		l0.43,0.5c-2.66,2.59-6.55,6.19-11.16,9c-0.72,0.36-3.53,0.36-3.96-0.07c-1.8-1.37-2.88-3.89-2.95-5.33
		c-0.22-2.95,3.89-8.93,6.55-13.32c3.74-6.26,6.26-9.15,6.84-11.52c0.36-1.37-1.08-2.95-2.16-3.17c-1.8,0.58-6.26,3.74-8.93,6.05
		l-0.5-0.36c2.52-2.52,8.28-6.7,11.88-9c0.79-0.5,1.58-0.58,2.38-0.22c1.66,0.72,3.46,4.46,3.46,6.19
		C876.93,460.07,871.68,466.26,869.16,470.36z M877.22,445.52c6.91-7.13,13.75-14.83,17.35-19.95c1.01-1.15,2.81,0.07,1.66,1.22
		c-4.32,4.9-11.38,11.88-18.58,19.15L877.22,445.52z"/>
	<path class="st0" d="M949.08,425.22c5.54-1.37,8.5-1.3,12.17-1.3c3.1,0,6.55,0.07,8.28,0.36c2.3,0.36-1.22,5.04-2.95,5.04
		c-4.61,0-11.09-1.3-18.07-1.3c-9,0-13.03,2.59-27.07,24.34c-3.96,6.26-15.27,24.41-15.27,28.73c0,1.22,0.65,3.46,2.38,3.67
		c1.8-0.72,6.12-3.31,8.93-6.34l0.43,0.5c-2.81,2.59-6.77,6.19-11.38,9c-0.65,0.36-3.67,0.36-3.89-0.07
		c-1.44-1.44-2.52-4.75-2.3-6.05c0.22-3.82,5.76-12.67,9-17.57l0.58-0.72c-5.98,7.27-16.71,18.07-23.98,24.41
		c-0.65,0.5-2.52,0.29-2.88,0c-3.38-2.66-3.38-11.09-0.43-18.07c4.61-11.45,17.79-18.58,24.05-18.58c3.1,0,5.18,1.08,7.78,3.89
		c3.1-4.82,6.48-9.94,7.7-11.52C927.98,435.3,938.35,428.67,949.08,425.22z M912,460.07c-4.54-5.9-6.62-7.06-9.5-7.06
		c-5.04,0-11.66,7.13-14.54,15.91c-2.3,7.13-2.3,13.18-0.36,15.41C891.04,483.4,903.93,469.64,912,460.07z"/>
	<path class="st0" d="M955.05,470.36c-2.81,4.54-6.05,9-5.83,11.67c0.07,1.22,1.66,2.16,3.1,2.66c2.3-0.79,5.98-3.6,8.64-6.26
		l0.43,0.5c-2.66,2.59-6.55,6.19-11.16,9c-0.72,0.36-3.53,0.36-3.96-0.07c-1.8-1.37-2.88-3.89-2.95-5.33
		c-0.22-2.95,3.89-8.93,6.55-13.32c3.74-6.26,6.26-9.15,6.84-11.52c0.36-1.37-1.08-2.95-2.16-3.17c-1.8,0.58-6.26,3.74-8.93,6.05
		l-0.5-0.36c2.52-2.52,8.28-6.7,11.88-9c0.79-0.5,1.58-0.58,2.38-0.22c1.66,0.72,3.46,4.46,3.46,6.19
		C962.83,460.07,957.57,466.26,955.05,470.36z M963.11,445.52c6.91-7.13,13.75-14.83,17.35-19.95c1.01-1.15,2.81,0.07,1.66,1.22
		c-4.32,4.9-11.38,11.88-18.58,19.15L963.11,445.52z"/>
	<path class="st0" d="M985.58,477.13c-3.31,2.88-10.3,8.57-14.33,10.87c-0.79,0.5-2.81,0.22-3.17-0.07
		c-1.73-1.37-2.45-4.54-2.45-5.98c-0.22-2.95,1.66-7.06,4.18-11.38c3.17-5.47,6.26-10.44,9.14-15.05h-0.79c-1.94,0-3.82,0.07-4.18,0
		c-0.29-0.07-0.5-0.36,0.07-0.65c5.18-2.81,11.52-6.7,16.71-10.73c0.5-0.36,0.86-0.22,0.58,0.29c-1.22,2.02-2.74,4.25-4.68,7.34
		c6.12,0,9.86-0.5,10.44-0.29c0.79,0.22-2.74,4.25-4.1,4.25c-0.36,0-3.46-0.07-8.71-0.14c-3.67,5.76-6.77,10.73-9.65,16.2
		c-2.59,4.68-3.53,6.98-3.31,9.65c0.07,1.37,0.65,2.88,2.09,3.38c1.94-0.58,8.42-5.26,11.67-8.06L985.58,477.13z"/>
	<path class="st0" d="M1018.91,435.08c0.58,0.79,0.43,2.81-0.36,4.18c-2.3,4.46-7.2,6.7-11.09,7.85c-0.22,0.07-0.36-0.14-0.14-0.22
		c2.23-0.79,4.1-1.87,4.68-3.6c0.79-2.3-1.01-4.1-0.07-6.77c0.58-1.73,1.66-2.38,3.96-2.38
		C1017.26,434.14,1018.41,434.43,1018.91,435.08z"/>
	<path class="st0" d="M1036.41,459.27c-2.95-5.83-6.48-8.21-10.73-7.13c-3.67,2.09-2.81,6.05,1.58,15.41
		c3.74,8.14,3.82,14.83-1.87,18.36c-3.1,1.94-5.98,2.81-9.79,2.81c-3.1,0.07-6.26-1.15-7.7-3.53c-1.58-2.59-0.14-7.34,4.03-8.5
		l0.29,0.22c-0.22,2.95,1.01,5.76,3.1,7.56c2.52,2.23,5.33,2.81,8.35,1.58c4.39-2.02,1.73-7.34-1.94-16.56
		c-4.03-9.72-3.24-14.83,2.02-17.21c2.38-1.08,5.11-2.02,8.21-1.94c3.38,0,6.12,0.65,7.2,2.95c0.94,2.09-0.5,4.61-2.45,5.98H1036.41
		z"/>
	<path class="st0" d="M1084.65,487.86c-2.38,0-5.54,0.79-4.39-3.02c3.46-6.41,12.67-18.87,13.03-27.36
		c0.07-1.37-0.29-2.09-0.65-2.59c-4.25,1.37-14.91,10.08-23.19,22.03c-2.52,3.67-5.18,8.42-6.77,10.94c-1.44,0-5.83,1.08-4.32-2.95
		c4.32-5.76,13.61-20.59,13.32-26.5c-0.07-1.22-0.79-2.52-2.3-3.02c-2.02,0.5-5.62,2.74-8.42,5.83l-0.5-0.5
		c2.74-2.52,7.27-6.48,11.67-9c3.38-1.87,5.04,4.25,5.26,6.62c0.22,3.82-3.38,10.15-6.12,14.76c8.28-10.58,20.23-20.38,25.27-21.89
		c3.89,0.94,3.46,10.22-2.52,20.31c7.99-9.94,20.16-18.94,24.84-20.31c4.39,0.94,4.1,6.05-3.46,18.79c-2.67,4.54-5.54,9-5.33,11.67
		c0.07,1.22,0.65,2.38,2.09,2.88c2.3-0.79,6.05-3.46,8.71-6.12l0.43,0.5c-2.66,2.59-6.55,6.19-11.16,9
		c-0.79,0.5-2.88,0.22-3.24-0.07c-1.73-1.37-2.74-4.25-2.74-5.69c-0.22-2.95,3.96-8.86,6.41-13.25c5.91-10.3,5.98-12.31,4.32-13.97
		c-4.32,1.3-16.34,10.15-23.76,21.96C1088.83,480.59,1086.02,485.34,1084.65,487.86z"/>
	<path class="st0" d="M1132.38,476.84c-0.07,1.15-0.07,2.23,0,3.31c0.79,2.81,2.23,4.25,4.18,4.75c2.3,0.65,5.98-0.22,8.64-1.44
		c1.94-0.79,6.55-4.46,8.86-7.27l0.65,0.36c-2.95,3.53-7.34,6.84-11.16,8.93c-2.52,1.37-5.83,3.1-9.29,3.1
		c-2.88,0-6.12-2.52-7.27-5.69c-0.79-2.88-1.58-7.7,3.6-16.35c2.74-4.9,8.5-10.08,13.32-12.82c2.81-1.51,6.05-2.59,8.93-2.59
		c3.24,0,6.05,1.08,6.41,3.38C1160.03,459.2,1152.76,465.11,1132.38,476.84z M1145.27,453.66c-4.18,2.81-11.67,13.03-12.82,22.47
		c14.26-8.5,19.95-12.03,21.1-15.55C1155.28,456.11,1149.59,452.29,1145.27,453.66z"/>
	<path class="st0" d="M1187.97,467.77c-6.34,6.7-15.12,14.98-21.1,20.16c-0.65,0.5-2.52,0.29-2.88,0
		c-3.38-2.66-3.38-11.09-0.43-18.07c4.61-11.45,17.79-18.58,24.05-18.58c3.53,0,5.54,0.65,9.79,5.26c1.08-0.86,3.38-3.17,5.04-4.9
		c0.29-0.29,0.5-0.36,0.58-0.22c0.07,0.07,0.07,0.22,0.07,0.36c-4.68,5.9-16.42,23.62-16.13,29.67c0.07,1.22,1.15,2.52,2.59,3.02
		c1.8-0.79,5.83-3.31,8.64-6.34l0.43,0.5c-2.66,2.59-6.77,6.48-11.38,9.29c-0.65,0.36-3.82,0.36-4.03-0.07
		c-1.51-1.73-2.23-4.32-2.3-5.76C1180.55,477.64,1185.52,471.73,1187.97,467.77z M1193.51,460.35c-4.54-5.9-7.27-7.34-10.08-7.34
		c-5.04,0-11.67,7.13-14.54,15.91c-2.3,7.13-2.3,13.18-0.36,15.41C1172.05,483.33,1185.45,470,1193.51,460.35z"/>
	<path class="st0" d="M1200.78,484.91c4.32-5.76,13.61-20.59,13.32-26.5c-0.07-1.22-0.79-2.52-2.3-3.02
		c-2.02,0.5-5.62,2.74-8.42,5.83l-0.5-0.5c2.74-2.52,7.27-6.48,11.67-9c3.38-1.87,5.04,4.25,5.26,6.62
		c0.22,3.74-3.38,10.15-6.12,14.83c8.28-10.58,20.81-20.45,25.78-21.96c4.54,1.01,4.32,6.19-3.17,18.79c-2.66,4.54-5.62,9-5.4,11.67
		c0.07,1.22,0.65,2.38,2.09,2.88c2.3-0.79,6.05-3.46,8.71-6.12l0.43,0.5c-2.67,2.59-6.55,6.19-11.16,9
		c-0.79,0.5-2.88,0.22-3.24-0.07c-1.73-1.37-2.74-4.25-2.74-5.69c-0.22-2.95,4.03-8.86,6.48-13.25c5.98-10.37,5.9-12.46,4.1-14.04
		c-4.25,1.37-15.41,10.08-23.69,22.03c-2.52,3.67-5.18,8.42-6.77,10.94C1203.66,487.86,1199.27,488.94,1200.78,484.91z"/>
	<path class="st0" d="M1266.95,477.13c-3.31,2.88-10.3,8.57-14.33,10.87c-0.79,0.5-2.81,0.22-3.17-0.07
		c-1.73-1.37-2.45-4.54-2.45-5.98c-0.22-2.95,1.66-7.06,4.18-11.38c3.17-5.47,6.26-10.44,9.14-15.05h-0.79c-1.94,0-3.82,0.07-4.18,0
		c-0.29-0.07-0.5-0.36,0.07-0.65c5.18-2.81,11.52-6.7,16.71-10.73c0.5-0.36,0.86-0.22,0.58,0.29c-1.22,2.02-2.74,4.25-4.68,7.34
		c6.12,0,9.86-0.5,10.44-0.29c0.79,0.22-2.74,4.25-4.1,4.25c-0.36,0-3.46-0.07-8.71-0.14c-3.67,5.76-6.77,10.73-9.65,16.2
		c-2.59,4.68-3.53,6.98-3.31,9.65c0.07,1.37,0.65,2.88,2.09,3.38c1.94-0.58,8.42-5.26,11.67-8.06L1266.95,477.13z"/>
	<path class="st0" d="M1314.9,477.13c-3.31,2.88-10.3,8.57-14.33,10.87c-0.79,0.5-2.81,0.22-3.17-0.07
		c-1.73-1.37-2.45-4.54-2.45-5.98c-0.22-2.95,1.66-7.06,4.18-11.38c3.17-5.47,6.26-10.44,9.14-15.05h-0.79c-1.94,0-3.82,0.07-4.18,0
		c-0.29-0.07-0.5-0.36,0.07-0.65c5.18-2.81,11.52-6.7,16.71-10.73c0.5-0.36,0.86-0.22,0.58,0.29c-1.22,2.02-2.74,4.25-4.68,7.34
		c6.12,0,9.86-0.5,10.44-0.29c0.79,0.22-2.74,4.25-4.1,4.25c-0.36,0-3.46-0.07-8.71-0.14c-3.67,5.76-6.77,10.73-9.65,16.2
		c-2.59,4.68-3.53,6.98-3.31,9.65c0.07,1.37,0.65,2.88,2.09,3.38c1.94-0.58,8.42-5.26,11.67-8.06L1314.9,477.13z"/>
	<path class="st0" d="M1339.02,485.7c-2.52,1.37-4.97,2.88-7.78,2.88c-3.46,0-6.91-2.52-8.06-5.69c-0.79-2.88-1.58-7.7,3.6-16.35
		c2.74-4.9,8.57-10.3,13.39-13.03c2.81-1.51,5.83-2.59,8.5-2.59h0.07c3.24,0,6.34,2.59,7.42,5.76c0.79,2.52,0.86,8.78-3.96,17.07
		C1349.32,478.79,1344.06,482.96,1339.02,485.7z M1340.96,483.83c3.89-1.94,10.44-16.06,9.87-23.76c-0.29-3.38-1.58-5.4-3.82-6.19
		c-0.79-0.22-2.81-1.15-5.69-0.36c-4.75,2.88-13.68,16.13-12.75,26.64c0.79,2.81,2.23,4.25,4.18,4.75
		C1335.06,485.56,1338.08,484.98,1340.96,483.83z"/>
	<path class="st0" d="M1421.61,456.32c1.08,4.1-0.86,10.3-2.95,13.97c-3.6,6.62-9.72,11.3-14.69,14.33
		c-4.54,2.52-8.14,3.89-11.09,3.89c-3.1,0-5.76-2.16-8.28-5.54l-2.81,4.61c-1.51,0-5.47,1.08-3.96-2.95
		c3.74-5.76,19.08-34.13,22.47-39.53c5.18-8.64,19.73-21.17,37.88-21.17c3.1,0,6.62,0.07,8.35,0.36c2.3,0.36-0.72,5.04-2.45,5.04
		c-4.61,0-11.16-1.22-18.15-1.22s-11.16,1.37-20.38,17.14c-3.96,6.55-9.22,16.2-15.84,28.08c6.26-6.12,12.82-12.02,17.35-15.84
		c3.02-2.66,8.14-6.48,10.37-6.48C1419.23,451.28,1421.03,454.02,1421.61,456.32z M1403.68,484.19c2.88-2.52,6.34-4.97,9.22-11.74
		c3.1-6.7,3.46-12.17,2.88-14.69c-0.5-2.23-1.15-2.66-2.23-3.17c-1.08,0-3.31,1.15-6.12,3.46c-6.7,5.76-16.06,14.26-20.31,20.02
		c3.46,5.69,6.91,7.49,10.58,7.49C1399.64,485.56,1401.44,485.34,1403.68,484.19z"/>
	<path class="st0" d="M1432.19,476.84c-0.07,1.15-0.07,2.23,0,3.31c0.79,2.81,2.23,4.25,4.18,4.75c2.3,0.65,5.98-0.22,8.64-1.44
		c1.94-0.79,6.55-4.46,8.86-7.27l0.65,0.36c-2.95,3.53-7.34,6.84-11.16,8.93c-2.52,1.37-5.83,3.1-9.29,3.1
		c-2.88,0-6.12-2.52-7.27-5.69c-0.79-2.88-1.58-7.7,3.6-16.35c2.74-4.9,8.5-10.08,13.32-12.82c2.81-1.51,6.05-2.59,8.93-2.59
		c3.24,0,6.05,1.08,6.41,3.38C1459.84,459.2,1452.56,465.11,1432.19,476.84z M1445.08,453.66c-4.18,2.81-11.67,13.03-12.82,22.47
		c14.26-8.5,19.95-12.03,21.1-15.55C1455.08,456.11,1449.4,452.29,1445.08,453.66z"/>
	<path class="st0" d="M634.48,521.41c0.79-0.58,1.01-0.79,1.51-0.58c0.5,0.22,0.65,0.5,0.29,1.01
		c-1.51,3.02-23.76,41.98-26.07,46.52c-2.3,4.32-1.3,5.76,4.46,5.76c0.36,0,0.43,0.43-0.07,0.43c-1.87,0-9-0.29-10.51-0.29
		s-8.71,0.29-10.01,0.29c-0.36,0-0.22-0.43,0.14-0.43c4.9,0,7.99-2.09,11.16-7.2c1.94-3.1,20.45-35.36,21.17-37.23
		c0.5-1.08,0.43-1.66-0.29-1.66c-0.94,0-2.66,0.58-7.85,3.1c-0.58,0.29-0.86-0.22-0.36-0.43
		C624.9,527.6,630.44,524.36,634.48,521.41z"/>
	<path class="st0" d="M677.75,520.98c3.82,0,8.21,2.02,9.72,4.9c3.53,5.11,4.25,15.27-1.94,25.85
		c-7.06,11.88-18.79,18.65-24.05,20.95c-2.66,0.94-9.5,2.88-12.46,2.88c-3.82,0-9.07-2.02-10.58-4.68
		c-3.24-4.61-5.26-13.68,1.08-24.41c7.06-11.88,20.16-20.45,25.42-22.75C667.74,522.42,674.8,520.98,677.75,520.98z M680.05,552.88
		c5.18-9.22,5.69-19.95,2.45-24.77c-2.23-3.38-6.98-5.04-11.59-5.04c-1.8,0-4.03,0.36-5.54,1.15c-5.26,2.52-11.67,5.9-20.31,20.95
		c-4.75,8.57-4.82,18.22-1.44,22.9c1.87,3.02,7.49,4.97,11.81,4.97c2.59,0,4.68-0.43,5.9-0.94
		C666.59,569.58,671.41,567.85,680.05,552.88z"/>
	<path class="st0" d="M743.41,520.98c3.82,0,8.21,2.02,9.72,4.9c3.53,5.11,4.25,15.27-1.94,25.85
		c-7.06,11.88-18.79,18.65-24.05,20.95c-2.66,0.94-9.5,2.88-12.46,2.88c-3.82,0-9.07-2.02-10.58-4.68
		c-3.24-4.61-5.26-13.68,1.08-24.41c7.06-11.88,20.16-20.45,25.42-22.75C733.4,522.42,740.46,520.98,743.41,520.98z M745.72,552.88
		c5.18-9.22,5.69-19.95,2.45-24.77c-2.23-3.38-6.98-5.04-11.59-5.04c-1.8,0-4.03,0.36-5.54,1.15c-5.26,2.52-11.67,5.9-20.31,20.95
		c-4.75,8.57-4.82,18.22-1.44,22.9c1.87,3.02,7.49,4.97,11.81,4.97c2.59,0,4.68-0.43,5.9-0.94
		C732.25,569.58,737.07,567.85,745.72,552.88z"/>
	<path class="st0" d="M763.42,574.69c-1.08,0.22-1.51-0.65-2.16-1.01c9.58-7.99,19.66-16.06,28.66-23.76
		c8.86-7.71,21.75-19.66,28.95-26.14c1.15-0.22,1.15,0.86,1.8,1.15c-8.5,6.91-21.17,17.5-29.95,25.13
		C782.07,557.77,772.06,566.99,763.42,574.69z M783.51,545.1c-1.15,0.58-4.75,2.38-6.7,2.38c-6.62,0-9-5.69-7.49-11.23
		c1.08-4.25,4.32-7.42,7.99-9.36c1.94-1.08,4.61-2.38,7.13-2.38c6.05,0,8.78,4.9,7.06,11.31
		C790.42,539.84,787.33,543.16,783.51,545.1z M783.44,544.74c2.23-2.3,3.38-5.11,4.32-8.5c1.66-6.34-0.86-9.94-5.47-9.94
		c-1.94,0-3.6,0.36-4.68,0.86c-2.02,2.02-3.53,4.68-4.61,8.64c-1.44,5.54,0.79,9.58,5.69,9.58
		C780.63,545.39,781.93,545.32,783.44,544.74z M803.89,572.68c-1.15,0.58-4.75,2.38-6.7,2.38c-6.62,0-9-5.69-7.49-11.23
		c1.08-4.25,4.32-7.42,7.99-9.36c1.94-1.08,4.61-2.38,7.13-2.38c6.05,0,8.78,4.9,7.06,11.3
		C810.8,567.42,807.71,570.73,803.89,572.68z M803.82,572.32c2.23-2.3,3.38-5.11,4.32-8.5c1.66-6.34-0.86-9.94-5.47-9.94
		c-1.94,0-3.6,0.36-4.68,0.86c-2.02,2.02-3.53,4.68-4.61,8.64c-1.44,5.54,0.79,9.58,5.69,9.58
		C801.01,572.97,802.31,572.89,803.82,572.32z"/>
	<path class="st0" d="M848.38,563.24c-0.07,1.15-0.07,2.23,0,3.31c0.79,2.81,2.23,4.25,4.18,4.75c2.3,0.65,5.98-0.22,8.64-1.44
		c1.94-0.79,6.55-4.46,8.86-7.27l0.65,0.36c-2.95,3.53-7.34,6.84-11.16,8.93c-2.52,1.37-5.83,3.1-9.29,3.1
		c-2.88,0-6.12-2.52-7.27-5.69c-0.79-2.88-1.58-7.7,3.6-16.35c2.74-4.9,8.5-10.08,13.32-12.82c2.81-1.51,6.05-2.59,8.93-2.59
		c3.24,0,6.05,1.08,6.41,3.38C876.03,545.6,868.76,551.51,848.38,563.24z M861.27,540.06c-4.18,2.81-11.67,13.03-12.82,22.47
		c14.26-8.5,19.95-12.03,21.1-15.55C871.28,542.51,865.59,538.69,861.27,540.06z"/>
	<path class="st0" d="M875.09,571.31c4.32-5.76,13.61-20.59,13.32-26.5c-0.07-1.22-0.79-2.52-2.3-3.02
		c-2.02,0.5-5.62,2.74-8.42,5.83l-0.5-0.5c2.74-2.52,7.27-6.48,11.67-9c3.38-1.87,5.04,4.25,5.26,6.62
		c0.22,3.74-3.38,10.15-6.12,14.83c8.28-10.58,20.81-20.45,25.78-21.96c4.54,1.01,4.32,6.19-3.17,18.79c-2.66,4.54-5.62,9-5.4,11.67
		c0.07,1.22,0.65,2.38,2.09,2.88c2.3-0.79,6.05-3.46,8.71-6.12l0.43,0.5c-2.66,2.59-6.55,6.19-11.16,9
		c-0.79,0.5-2.88,0.22-3.24-0.07c-1.73-1.37-2.74-4.25-2.74-5.69c-0.22-2.95,4.03-8.86,6.48-13.25c5.98-10.37,5.9-12.46,4.1-14.04
		c-4.25,1.37-15.41,10.08-23.69,22.03c-2.52,3.67-5.18,8.42-6.77,10.95C877.97,574.26,873.58,575.34,875.09,571.31z"/>
	<path class="st0" d="M941.26,563.53c-3.31,2.88-10.3,8.57-14.33,10.87c-0.79,0.5-2.81,0.22-3.17-0.07
		c-1.73-1.37-2.45-4.54-2.45-5.98c-0.22-2.95,1.66-7.06,4.18-11.38c3.17-5.47,6.26-10.44,9.14-15.05h-0.79c-1.94,0-3.82,0.07-4.18,0
		c-0.29-0.07-0.5-0.36,0.07-0.65c5.18-2.81,11.52-6.7,16.71-10.73c0.5-0.36,0.86-0.22,0.58,0.29c-1.22,2.02-2.74,4.25-4.68,7.34
		c6.12,0,9.86-0.5,10.44-0.29c0.79,0.22-2.74,4.25-4.1,4.25c-0.36,0-3.46-0.07-8.71-0.14c-3.67,5.76-6.77,10.73-9.65,16.2
		c-2.59,4.68-3.53,6.98-3.31,9.65c0.07,1.37,0.65,2.88,2.09,3.38c1.94-0.58,8.42-5.26,11.66-8.06L941.26,563.53z"/>
	<path class="st0" d="M955.08,563.24c-0.07,1.15-0.07,2.23,0,3.31c0.79,2.81,2.23,4.25,4.18,4.75c2.31,0.65,5.98-0.22,8.64-1.44
		c1.94-0.79,6.55-4.46,8.86-7.27l0.65,0.36c-2.95,3.53-7.34,6.84-11.16,8.93c-2.52,1.37-5.83,3.1-9.29,3.1
		c-2.88,0-6.12-2.52-7.27-5.69c-0.79-2.88-1.58-7.7,3.6-16.35c2.74-4.9,8.5-10.08,13.32-12.82c2.81-1.51,6.05-2.59,8.93-2.59
		c3.24,0,6.05,1.08,6.41,3.38C982.73,545.6,975.46,551.51,955.08,563.24z M967.97,540.06c-4.18,2.81-11.67,13.03-12.82,22.47
		c14.26-8.5,19.95-12.03,21.1-15.55C977.98,542.51,972.29,538.69,967.97,540.06z"/>
	<path class="st0" d="M981.79,571.31c4.32-5.76,13.61-20.59,13.32-26.5c-0.07-1.22-0.79-2.52-2.3-3.02
		c-2.02,0.5-5.62,2.74-8.42,5.83l-0.5-0.5c2.74-2.52,7.27-6.48,11.67-9c3.38-1.87,5.04,4.25,5.26,6.62
		c0.22,1.94-0.72,4.39-1.94,7.06c5.76-7.49,10.58-12.96,15.34-13.9c2.45-0.22,7.34-0.07,7.49,0.43c-0.22,1.44-3.17,5.11-4.54,5.33
		c-2.02-0.07-4.54-0.94-8.21-0.86c-6.34,1.94-11.45,13.39-22.83,31.47C984.67,574.26,980.28,575.34,981.79,571.31z"/>
	<path class="st0" d="M1037.88,563.53c-3.31,2.88-10.3,8.57-14.33,10.87c-0.79,0.5-2.81,0.22-3.17-0.07
		c-1.73-1.37-2.45-4.54-2.45-5.98c-0.22-2.95,1.66-7.06,4.18-11.38c3.17-5.47,6.26-10.44,9.14-15.05h-0.79c-1.94,0-3.82,0.07-4.18,0
		c-0.29-0.07-0.5-0.36,0.07-0.65c5.18-2.81,11.52-6.7,16.71-10.73c0.5-0.36,0.86-0.22,0.58,0.29c-1.22,2.02-2.74,4.25-4.68,7.34
		c6.12,0,9.86-0.5,10.44-0.29c0.79,0.22-2.74,4.25-4.1,4.25c-0.36,0-3.46-0.07-8.71-0.14c-3.67,5.76-6.77,10.73-9.65,16.2
		c-2.59,4.68-3.53,6.98-3.31,9.65c0.07,1.37,0.65,2.88,2.09,3.38c1.94-0.58,8.42-5.26,11.67-8.06L1037.88,563.53z"/>
	<path class="st0" d="M1072.3,554.17c-6.34,6.7-15.12,14.98-21.1,20.16c-0.65,0.5-2.52,0.29-2.88,0
		c-3.38-2.67-3.38-11.09-0.43-18.07c4.61-11.45,17.79-18.58,24.05-18.58c3.53,0,5.54,0.65,9.79,5.26c1.08-0.86,3.38-3.17,5.04-4.9
		c0.29-0.29,0.5-0.36,0.58-0.22c0.07,0.07,0.07,0.22,0.07,0.36c-4.68,5.9-16.42,23.62-16.13,29.67c0.07,1.22,1.15,2.52,2.59,3.02
		c1.8-0.79,5.83-3.31,8.64-6.34l0.43,0.5c-2.66,2.59-6.77,6.48-11.38,9.29c-0.65,0.36-3.82,0.36-4.03-0.07
		c-1.51-1.73-2.23-4.32-2.3-5.76C1064.88,564.04,1069.85,558.13,1072.3,554.17z M1077.85,546.75c-4.54-5.9-7.27-7.34-10.08-7.34
		c-5.04,0-11.67,7.13-14.54,15.91c-2.3,7.13-2.3,13.18-0.36,15.41C1056.39,569.73,1069.78,556.4,1077.85,546.75z"/>
	<path class="st0" d="M1098.36,556.76c-2.81,4.54-6.05,9-5.83,11.67c0.07,1.22,1.66,2.16,3.1,2.66c2.3-0.79,5.98-3.6,8.64-6.26
		l0.43,0.5c-2.66,2.59-6.55,6.19-11.16,9c-0.72,0.36-3.53,0.36-3.96-0.07c-1.8-1.37-2.88-3.89-2.95-5.33
		c-0.22-2.95,3.89-8.93,6.55-13.32c3.74-6.26,6.26-9.15,6.84-11.52c0.36-1.37-1.08-2.95-2.16-3.17c-1.8,0.58-6.26,3.74-8.93,6.05
		l-0.5-0.36c2.52-2.52,8.28-6.7,11.88-9c0.79-0.5,1.58-0.58,2.38-0.22c1.66,0.72,3.46,4.46,3.46,6.19
		C1106.14,546.47,1100.88,552.66,1098.36,556.76z M1106.43,531.92c6.91-7.13,13.75-14.83,17.35-19.95c1.01-1.15,2.81,0.07,1.66,1.22
		c-4.32,4.9-11.38,11.88-18.58,19.15L1106.43,531.92z"/>
	<path class="st0" d="M1107.36,571.31c4.32-5.76,13.61-20.59,13.32-26.5c-0.07-1.22-0.79-2.52-2.3-3.02
		c-2.02,0.5-5.62,2.74-8.42,5.83l-0.5-0.5c2.74-2.52,7.27-6.48,11.67-9c3.38-1.87,5.04,4.25,5.26,6.62
		c0.22,3.74-3.38,10.15-6.12,14.83c8.28-10.58,20.81-20.45,25.78-21.96c4.54,1.01,4.32,6.19-3.17,18.79c-2.66,4.54-5.62,9-5.4,11.67
		c0.07,1.22,0.65,2.38,2.09,2.88c2.3-0.79,6.05-3.46,8.71-6.12l0.43,0.5c-2.67,2.59-6.55,6.19-11.16,9
		c-0.79,0.5-2.88,0.22-3.24-0.07c-1.73-1.37-2.74-4.25-2.74-5.69c-0.22-2.95,4.03-8.86,6.48-13.25c5.98-10.37,5.9-12.46,4.1-14.04
		c-4.25,1.37-15.41,10.08-23.69,22.03c-2.52,3.67-5.18,8.42-6.77,10.95C1110.24,574.26,1105.85,575.34,1107.36,571.31z"/>
	<path class="st0" d="M1178.28,574.26c-2.38,0-5.54,0.79-4.39-3.02c3.46-6.41,12.67-18.87,13.03-27.36
		c0.07-1.37-0.29-2.09-0.65-2.59c-4.25,1.37-14.91,10.08-23.19,22.03c-2.52,3.67-5.18,8.42-6.77,10.95c-1.44,0-5.83,1.08-4.32-2.95
		c4.32-5.76,13.61-20.59,13.32-26.5c-0.07-1.22-0.79-2.52-2.3-3.02c-2.02,0.5-5.62,2.74-8.42,5.83l-0.5-0.5
		c2.74-2.52,7.27-6.48,11.67-9c3.38-1.87,5.04,4.25,5.26,6.62c0.22,3.82-3.38,10.15-6.12,14.76c8.28-10.58,20.23-20.38,25.27-21.89
		c3.89,0.94,3.46,10.22-2.52,20.31c7.99-9.94,20.16-18.94,24.84-20.31c4.39,0.94,4.1,6.05-3.46,18.79c-2.67,4.54-5.54,9-5.33,11.67
		c0.07,1.22,0.65,2.38,2.09,2.88c2.3-0.79,6.05-3.46,8.71-6.12l0.43,0.5c-2.66,2.59-6.55,6.19-11.16,9
		c-0.79,0.5-2.88,0.22-3.24-0.07c-1.73-1.37-2.74-4.25-2.74-5.69c-0.22-2.95,3.96-8.86,6.41-13.25c5.91-10.3,5.98-12.31,4.32-13.97
		c-4.32,1.3-16.34,10.15-23.76,21.96C1182.46,566.99,1179.65,571.74,1178.28,574.26z"/>
	<path class="st0" d="M1226.02,563.24c-0.07,1.15-0.07,2.23,0,3.31c0.79,2.81,2.23,4.25,4.18,4.75c2.3,0.65,5.98-0.22,8.64-1.44
		c1.94-0.79,6.55-4.46,8.86-7.27l0.65,0.36c-2.95,3.53-7.34,6.84-11.16,8.93c-2.52,1.37-5.83,3.1-9.29,3.1
		c-2.88,0-6.12-2.52-7.27-5.69c-0.79-2.88-1.58-7.7,3.6-16.35c2.74-4.9,8.5-10.08,13.32-12.82c2.81-1.51,6.05-2.59,8.93-2.59
		c3.24,0,6.05,1.08,6.41,3.38C1253.67,545.6,1246.39,551.51,1226.02,563.24z M1238.91,540.06c-4.18,2.81-11.67,13.03-12.82,22.47
		c14.26-8.5,19.95-12.03,21.1-15.55C1248.92,542.51,1243.23,538.69,1238.91,540.06z"/>
	<path class="st0" d="M1252.73,571.31c4.32-5.76,13.61-20.59,13.32-26.5c-0.07-1.22-0.79-2.52-2.3-3.02
		c-2.02,0.5-5.62,2.74-8.42,5.83l-0.5-0.5c2.74-2.52,7.27-6.48,11.67-9c3.38-1.87,5.04,4.25,5.26,6.62
		c0.22,3.74-3.38,10.15-6.12,14.83c8.28-10.58,20.81-20.45,25.78-21.96c4.54,1.01,4.32,6.19-3.17,18.79c-2.66,4.54-5.62,9-5.4,11.67
		c0.07,1.22,0.65,2.38,2.09,2.88c2.3-0.79,6.05-3.46,8.71-6.12l0.43,0.5c-2.67,2.59-6.55,6.19-11.16,9
		c-0.79,0.5-2.88,0.22-3.24-0.07c-1.73-1.37-2.74-4.25-2.74-5.69c-0.22-2.95,4.03-8.86,6.48-13.25c5.98-10.37,5.9-12.46,4.1-14.04
		c-4.25,1.37-15.41,10.08-23.69,22.03c-2.52,3.67-5.18,8.42-6.77,10.95C1255.61,574.26,1251.22,575.34,1252.73,571.31z"/>
	<path class="st0" d="M1318.9,563.53c-3.31,2.88-10.3,8.57-14.33,10.87c-0.79,0.5-2.81,0.22-3.17-0.07
		c-1.73-1.37-2.45-4.54-2.45-5.98c-0.22-2.95,1.66-7.06,4.18-11.38c3.17-5.47,6.26-10.44,9.14-15.05h-0.79c-1.94,0-3.82,0.07-4.18,0
		c-0.29-0.07-0.5-0.36,0.07-0.65c5.18-2.81,11.52-6.7,16.71-10.73c0.5-0.36,0.86-0.22,0.58,0.29c-1.22,2.02-2.74,4.25-4.68,7.34
		c6.12,0,9.86-0.5,10.44-0.29c0.79,0.22-2.74,4.25-4.1,4.25c-0.36,0-3.46-0.07-8.71-0.14c-3.67,5.76-6.77,10.73-9.65,16.2
		c-2.59,4.68-3.53,6.98-3.31,9.65c0.07,1.37,0.65,2.88,2.09,3.38c1.94-0.58,8.42-5.26,11.67-8.06L1318.9,563.53z"/>
</g>
</svg>
